<?xml version="1.0" encoding="UTF-8"?>
<!DOCTYPE svg PUBLIC "-//W3C//DTD SVG 1.1//EN" "http://www.w3.org/Graphics/SVG/1.1/DTD/svg11.dtd">
<!-- Creator: CorelDRAW -->
<svg xmlns="http://www.w3.org/2000/svg" xml:space="preserve" width="2.36601in" height="3.63889in" style="shape-rendering:geometricPrecision; text-rendering:geometricPrecision; image-rendering:optimizeQuality; fill-rule:evenodd; clip-rule:evenodd"
viewBox="0 0 0.826765 1.27155"
 xmlns:xlink="http://www.w3.org/1999/xlink">
 <defs>
  <style type="text/css">
   <![CDATA[
    .str2 {stroke:black;stroke-width:0.0010483}
    .str1 {stroke:black;stroke-width:0.0010483;stroke-linejoin:bevel}
    .str0 {stroke:aqua;stroke-width:0.0010483;stroke-linejoin:bevel}
    .fil0 {fill:none}
   ]]>
  </style>
 </defs>
 <g id="VIEW_HATCHES">
  <metadata id="CorelCorpID_0Corel-Layer"/>
  <g id="_171237688">
   <path id="_171237184" class="fil0 str0" d="M0.826226 0.858356c-1.5133e-005,0.14746 -0.0787024,0.2837 -0.206423,0.357405 -0.127713,0.0737168 -0.285045,0.0736852 -0.412728,-5.77804e-005 -0.127689,-0.0737484 -0.206344,-0.210011 -0.206317,-0.357475l0 0 0 -0.0319828 0 0 -0.000233873 -0.75682 0 0c8.80464e-005,-0.0378214 0.0306319,-0.0685152 0.0684505,-0.0688068l0 0 0.687901 -9.4925e-005 0 0c0.038069,-8.39192e-005 0.069005,0.0306938 0.0691288,0.0687711l0 0 0.000239376 0.756835 0 0 -1.65087e-005 0.0322263 0 0z"/>
   <path id="_171237256" class="fil0 str1" d="M0.0694975 0.038662c0.0170796,2.75145e-006 0.0309249,0.0138508 0.0309222,0.0309304 -2.75145e-006,0.0170796 -0.0138522,0.0309249 -0.0309318,0.0309222 -0.0170796,-2.75145e-006 -0.0309235,-0.0138522 -0.0309208,-0.0309318 2.75145e-006,-0.0170796 0.0138494,-0.0309235 0.0309304,-0.0309208z"/>
   <path id="_171237328" class="fil0 str1" d="M0.757028 0.0385726c0.0170796,2.75145e-006 0.0309249,0.0138508 0.0309222,0.0309304 -2.75145e-006,0.017081 -0.0138508,0.0309249 -0.0309318,0.0309222 -0.0170796,-2.75145e-006 -0.0309235,-0.0138508 -0.0309208,-0.0309304 2.75145e-006,-0.017081 0.0138508,-0.0309249 0.0309304,-0.0309222z"/>
   <path id="_171237400" class="fil0 str1" d="M0.0693902 0.726327c0.0170796,2.75145e-006 0.0309249,0.0138494 0.0309222,0.0309304 -2.75145e-006,0.0170796 -0.0138522,0.0309249 -0.0309318,0.0309222 -0.0170796,-2.75145e-006 -0.0309235,-0.0138522 -0.0309208,-0.0309318 2.75145e-006,-0.017081 0.0138494,-0.0309235 0.0309304,-0.0309208z"/>
   <path id="_171237472" class="fil0 str1" d="M0.757252 0.726435c0.0170796,2.75145e-006 0.0309249,0.0138494 0.0309222,0.0309304 -2.75145e-006,0.0170796 -0.0138522,0.0309249 -0.0309318,0.0309222 -0.0170796,-2.75145e-006 -0.0309235,-0.0138522 -0.0309208,-0.0309318 2.75145e-006,-0.017081 0.0138494,-0.0309235 0.0309304,-0.0309208z"/>
   <path id="_171237544" class="fil0 str2" d="M0.134727 0.858325c-0.0120596,0 -0.0218396,-0.00978002 -0.0218396,-0.0218396 0,-0.0120596 0.00978002,-0.0218396 0.0218396,-0.0218396m0 0.0436792l0.0687862 0m-0.0687862 -0.0436792l0.0687862 0m0 0c0.0120596,0 0.0218396,0.00978002 0.0218396,0.0218396 0,0.0120596 -0.00978002,0.0218396 -0.0218396,0.0218396"/>
   <path id="_171237616" class="fil0 str2" d="M0.623935 0.858325c-0.0120596,0 -0.0218396,-0.00978002 -0.0218396,-0.0218396 0,-0.0120596 0.00978002,-0.0218396 0.0218396,-0.0218396m0 0.0436792l0.0687862 0m-0.0687862 -0.0436792l0.0687862 0m0 0c0.0120596,0 0.0218396,0.00978002 0.0218396,0.0218396 0,0.0120596 -0.00978002,0.0218396 -0.0218396,0.0218396"/>
  </g>
 </g>
</svg>
