<?xml version="1.0" encoding="UTF-8"?>
<!DOCTYPE svg PUBLIC "-//W3C//DTD SVG 1.1//EN" "http://www.w3.org/Graphics/SVG/1.1/DTD/svg11.dtd">
<!-- Creator: CorelDRAW -->
<svg xmlns="http://www.w3.org/2000/svg" xml:space="preserve" width="12in" height="12in" style="shape-rendering:geometricPrecision; text-rendering:geometricPrecision; image-rendering:optimizeQuality; fill-rule:evenodd; clip-rule:evenodd"
viewBox="0 0 12 12"
 xmlns:xlink="http://www.w3.org/1999/xlink">
 <defs>
  <style type="text/css">
   <![CDATA[
    .str2 {stroke:black;stroke-width:0.003;stroke-linejoin:bevel}
    .str0 {stroke:aqua;stroke-width:0.003;stroke-linejoin:bevel}
    .str1 {stroke:red;stroke-width:0.003}
    .fil0 {fill:none}
   ]]>
  </style>
 </defs>
 <g id="VIEW_HATCHES">
  <metadata id="CorelCorpID_0Corel-Layer"/>
  <g id="_170043856">
   <path id="_171234160" class="fil0 str0" d="M1.65249 8.68046l-0.198106 -1.52384c-0.00986614,-0.0753465 0.0142441,-0.151181 0.065815,-0.206996 0.051563,-0.055811 0.125728,-0.0858189 0.201614,-0.0819331l1.53459 0.079937 0 0c0.025311,-0.0182598 1.3042,-0.950449 1.99548,-1.44927 0.030378,-0.0219409 0.0720551,-0.019378 0.099563,0.00606299l0.916654 0.848457c0.0275079,0.0254409 0.0332323,0.0668071 0.0137283,0.0987992 -0.536358,0.879091 -1.27472,2.07472 -1.29098,2.10136l0 0 0.198106 1.52385c0.00986614,0.0753465 -0.014252,0.151181 -0.065815,0.206996 -0.0515709,0.055815 -0.125728,0.085815 -0.201622,0.0819331l-1.53458 -0.0799409 0 0c-0.025311,0.0182598 -1.34632,0.980839 -1.99549,1.44927 -0.030378,0.0219409 -0.0720512,0.019374 -0.0995591,-0.00606299l-0.916657 -0.848457c-0.0275079,-0.0254409 -0.0332362,-0.0668031 -0.0137323,-0.0987992 0.536362,-0.879098 1.27472,-2.07472 1.29098,-2.10136l0 0z"/>
   <g>
    <line id="_171232408" class="fil0 str1" x1="4.8461" y1="8.41781" x2="5.02656" y2= "8.5848" />
    <line id="_171234880" class="fil0 str1" x1="4.90509" y1="8.35423" x2="5.07294" y2= "8.50955" />
    <line id="_171239944" class="fil0 str1" x1="4.96399" y1="8.29057" x2="5.11931" y2= "8.4343" />
    <line id="_171217936" class="fil0 str1" x1="5.02298" y1="8.22698" x2="5.16569" y2= "8.35904" />
    <line id="_171234256" class="fil0 str1" x1="5.08175" y1="8.16319" x2="5.21207" y2= "8.28378" />
    <line id="_171234280" class="fil0 str1" x1="5.14075" y1="8.09961" x2="5.25844" y2= "8.20852" />
    <line id="_171212728" class="fil0 str1" x1="3.29301" y1="6.86246" x2="3.46092" y2= "7.01784" />
    <line id="_171232072" class="fil0 str1" x1="3.36448" y1="6.81042" x2="3.51992" y2= "6.95426" />
    <line id="_167902544" class="fil0 str1" x1="3.43594" y1="6.75839" x2="3.57881" y2= "6.8906" />
    <line id="_167901968" class="fil0 str1" x1="3.50741" y1="6.70635" x2="3.63781" y2= "6.82702" />
    <line id="_167901992" class="fil0 str1" x1="3.57889" y1="6.65431" x2="3.69658" y2= "6.76322" />
    <line id="_167902016" class="fil0 str1" x1="3.22155" y1="6.91448" x2="3.40203" y2= "7.0815" />
    <line id="_167902040" class="fil0 str1" x1="4.38376" y1="7.98998" x2="4.78906" y2= "8.36502" />
    <line id="_167902064" class="fil0 str1" x1="3.9803" y1="7.49844" x2="4.38559" y2= "7.87349" />
    <line id="_167902088" class="fil0 str1" x1="4.18194" y1="7.74413" x2="4.58723" y2= "8.11917" />
    <line id="_167902112" class="fil0 str1" x1="4.44276" y1="7.9264" x2="4.84805" y2= "8.30144" />
    <line id="_167902136" class="fil0 str1" x1="4.03929" y1="7.43487" x2="4.44459" y2= "7.80991" />
    <line id="_167902160" class="fil0 str1" x1="4.24093" y1="7.68055" x2="4.64622" y2= "8.05559" />
    <line id="_170031688" class="fil0 str1" x1="4.50165" y1="7.86273" x2="4.90694" y2= "8.23777" />
    <line id="_170032120" class="fil0 str1" x1="4.09819" y1="7.3712" x2="4.50348" y2= "7.74624" />
    <line id="_170033728" class="fil0 str1" x1="4.29983" y1="7.61688" x2="4.70512" y2= "7.99192" />
    <line id="_170031424" class="fil0 str1" x1="4.56065" y1="7.79915" x2="4.96594" y2= "8.17419" />
    <line id="_170031832" class="fil0 str1" x1="4.15719" y1="7.30762" x2="4.56248" y2= "7.68266" />
    <line id="_171552608" class="fil0 str1" x1="4.35882" y1="7.5533" x2="4.76411" y2= "7.92834" />
    <line id="_171552632" class="fil0 str1" x1="4.61941" y1="7.73535" x2="5.02471" y2= "8.1104" />
    <line id="_171552656" class="fil0 str1" x1="4.21595" y1="7.24382" x2="4.62124" y2= "7.61887" />
    <line id="_171552680" class="fil0 str1" x1="4.41759" y1="7.4895" x2="4.82288" y2= "7.86455" />
    <line id="_171552704" class="fil0 str1" x1="4.67841" y1="7.67178" x2="5.0837" y2= "8.04682" />
    <line id="_171552728" class="fil0 str1" x1="4.47659" y1="7.42593" x2="4.88188" y2= "7.80097" />
    <line id="_171552752" class="fil0 str1" x1="4.64446" y1="8.17213" x2="5.04976" y2= "8.54717" />
    <line id="_171552776" class="fil0 str1" x1="4.70346" y1="8.10855" x2="5.09613" y2= "8.47192" />
    <line id="_171234424" class="fil0 str1" x1="4.76235" y1="8.04489" x2="5.1425" y2= "8.39666" />
    <line id="_171236128" class="fil0 str1" x1="4.82135" y1="7.98131" x2="5.18888" y2= "8.32141" />
    <line id="_171232576" class="fil0 str1" x1="4.88011" y1="7.91751" x2="5.23526" y2= "8.24615" />
    <line id="_171220288" class="fil0 str1" x1="4.93911" y1="7.85393" x2="5.28163" y2= "8.17089" />
    <line id="_171233320" class="fil0 str1" x1="3.9214" y1="7.56214" x2="4.3267" y2= "7.93718" />
    <line id="_170045944" class="fil0 str1" x1="3.51796" y1="7.07061" x2="3.92325" y2= "7.44565" />
    <line id="_170046016" class="fil0 str1" x1="3.7196" y1="7.31629" x2="4.12489" y2= "7.69133" />
    <line id="_170046088" class="fil0 str1" x1="3.57695" y1="7.00703" x2="3.98225" y2= "7.38207" />
    <line id="_170046160" class="fil0 str1" x1="3.77859" y1="7.25271" x2="4.18389" y2= "7.62775" />
    <line id="_170046232" class="fil0 str1" x1="3.63585" y1="6.94336" x2="4.04114" y2= "7.31841" />
    <line id="_170046304" class="fil0 str1" x1="3.83749" y1="7.18904" x2="4.24278" y2= "7.56409" />
    <line id="_170046376" class="fil0 str1" x1="3.69485" y1="6.87978" x2="4.10014" y2= "7.25483" />
    <line id="_170046448" class="fil0 str1" x1="3.89648" y1="7.12546" x2="4.30178" y2= "7.50051" />
    <line id="_170046520" class="fil0 str1" x1="3.75361" y1="6.81599" x2="4.15891" y2= "7.19103" />
    <line id="_170046592" class="fil0 str1" x1="3.95525" y1="7.06167" x2="4.36054" y2= "7.43671" />
    <line id="_170046664" class="fil0 str1" x1="3.45907" y1="7.1343" x2="3.86436" y2= "7.50934" />
    <line id="_170046736" class="fil0 str1" x1="4.01425" y1="6.99809" x2="4.41954" y2= "7.37313" />
    <line id="_170046808" class="fil0 str1" x1="3.25727" y1="6.88848" x2="3.66256" y2= "7.26352" />
    <line id="_170046880" class="fil0 str1" x1="3.32874" y1="6.83644" x2="3.72156" y2= "7.19994" />
    <line id="_170046952" class="fil0 str1" x1="3.40021" y1="6.78441" x2="3.78045" y2= "7.13628" />
    <line id="_170047024" class="fil0 str1" x1="3.47168" y1="6.73238" x2="3.83945" y2= "7.0727" />
    <line id="_170047096" class="fil0 str1" x1="3.54315" y1="6.68033" x2="3.89822" y2= "7.0089" />
    <line id="_170047168" class="fil0 str1" x1="3.61462" y1="6.6283" x2="3.95721" y2= "6.94532" />
   </g>
   <g>
    <line id="_170047312" class="fil0 str1" x1="1.79766" y1="8.81527" x2="1.6172" y2= "8.64828" />
    <line id="_170047384" class="fil0 str1" x1="1.73867" y1="8.87885" x2="1.57082" y2= "8.72353" />
    <line id="_170047456" class="fil0 str1" x1="1.67977" y1="8.94252" x2="1.52444" y2= "8.79878" />
    <line id="_170047528" class="fil0 str1" x1="1.62078" y1="9.00609" x2="1.47807" y2= "8.87404" />
    <line id="_170047600" class="fil0 str1" x1="1.56201" y1="9.06989" x2="1.43169" y2= "8.9493" />
    <line id="_170047672" class="fil0 str1" x1="1.50301" y1="9.13347" x2="1.38531" y2= "9.02456" />
    <line id="_170047744" class="fil0 str1" x1="3.35076" y1="10.3706" x2="3.18284" y2= "10.2152" />
    <line id="_170047816" class="fil0 str1" x1="3.2793" y1="10.4227" x2="3.12384" y2= "10.2788" />
    <line id="_170047888" class="fil0 str1" x1="3.20783" y1="10.4747" x2="3.06494" y2= "10.3425" />
    <line id="_170047960" class="fil0 str1" x1="3.13637" y1="10.5267" x2="3.00595" y2= "10.4061" />
    <line id="_170048032" class="fil0 str1" x1="3.06491" y1="10.5788" x2="2.94718" y2= "10.4699" />
    <line id="_170045872" class="fil0 str1" x1="3.42221" y1="10.3186" x2="3.24173" y2= "10.1516" />
    <line id="_170048176" class="fil0 str1" x1="2.26" y1="9.24311" x2="1.8547" y2= "8.86806" />
    <line id="_170048248" class="fil0 str1" x1="2.66346" y1="9.73463" x2="2.25817" y2= "9.35959" />
    <line id="_170048320" class="fil0 str1" x1="2.46182" y1="9.48896" x2="2.05653" y2= "9.11391" />
    <line id="_170048392" class="fil0 str1" x1="2.201" y1="9.30669" x2="1.79571" y2= "8.93164" />
    <line id="_170027608" class="fil0 str1" x1="2.60447" y1="9.79822" x2="2.19917" y2= "9.42317" />
    <line id="_170027656" class="fil0 str1" x1="2.40283" y1="9.55254" x2="1.99754" y2= "9.17749" />
    <line id="_170027704" class="fil0 str1" x1="2.14211" y1="9.37035" x2="1.73681" y2= "8.99531" />
    <line id="_170032168" class="fil0 str1" x1="2.54557" y1="9.86188" x2="2.14028" y2= "9.48684" />
    <line id="_170027752" class="fil0 str1" x1="2.34393" y1="9.6162" x2="1.93864" y2= "9.24116" />
    <line id="_170027920" class="fil0 str1" x1="2.08311" y1="9.43393" x2="1.67782" y2= "9.05889" />
    <line id="_170027968" class="fil0 str1" x1="2.48657" y1="9.92546" x2="2.08128" y2= "9.55042" />
    <line id="_170028016" class="fil0 str1" x1="2.28494" y1="9.67978" x2="1.87965" y2= "9.30474" />
    <line id="_170028088" class="fil0 str1" x1="2.02434" y1="9.49773" x2="1.61905" y2= "9.12269" />
    <line id="_170028184" class="fil0 str1" x1="2.42781" y1="9.98926" x2="2.02252" y2= "9.61421" />
    <line id="_170028256" class="fil0 str1" x1="2.22617" y1="9.74357" x2="1.82088" y2= "9.36853" />
    <line id="_170028304" class="fil0 str1" x1="1.96535" y1="9.56131" x2="1.56006" y2= "9.18626" />
    <line id="_170028352" class="fil0 str1" x1="2.16717" y1="9.80716" x2="1.76188" y2= "9.43211" />
    <line id="_170028400" class="fil0 str1" x1="1.9993" y1="9.06095" x2="1.594" y2= "8.68591" />
    <line id="_170028472" class="fil0 str1" x1="1.9403" y1="9.12453" x2="1.54763" y2= "8.76116" />
    <line id="_170028544" class="fil0 str1" x1="1.88141" y1="9.1882" x2="1.50126" y2= "8.83642" />
    <line id="_170028640" class="fil0 str1" x1="1.82241" y1="9.25178" x2="1.45488" y2= "8.91167" />
    <line id="_170028760" class="fil0 str1" x1="1.76365" y1="9.31557" x2="1.4085" y2= "8.98693" />
    <line id="_170028880" class="fil0 str1" x1="1.70465" y1="9.37915" x2="1.36212" y2= "9.06219" />
    <line id="_170028808" class="fil0 str1" x1="2.72236" y1="9.67094" x2="2.31706" y2= "9.2959" />
    <line id="_170029144" class="fil0 str1" x1="3.1258" y1="10.1625" x2="2.72051" y2= "9.78743" />
    <line id="_170029072" class="fil0 str1" x1="2.92416" y1="9.91679" x2="2.51887" y2= "9.54175" />
    <line id="_170029000" class="fil0 str1" x1="3.06681" y1="10.2261" x2="2.66151" y2= "9.85101" />
    <line id="_170034256" class="fil0 str1" x1="2.86517" y1="9.98037" x2="2.45987" y2= "9.60533" />
    <line id="_170034520" class="fil0 str1" x1="3.00791" y1="10.2897" x2="2.60261" y2= "9.91468" />
    <line id="_170036488" class="fil0 str1" x1="2.80627" y1="10.044" x2="2.40098" y2= "9.669" />
    <line id="_170035984" class="fil0 str1" x1="2.94891" y1="10.3533" x2="2.54362" y2= "9.97826" />
    <line id="_170035528" class="fil0 str1" x1="2.74728" y1="10.1076" x2="2.34198" y2= "9.73257" />
    <line id="_170033080" class="fil0 str1" x1="2.89015" y1="10.4171" x2="2.48485" y2= "10.0421" />
    <line id="_170033008" class="fil0 str1" x1="2.68851" y1="10.1714" x2="2.28322" y2= "9.79637" />
    <line id="_170035648" class="fil0 str1" x1="3.18469" y1="10.0988" x2="2.7794" y2= "9.72374" />
    <line id="_170033152" class="fil0 str1" x1="2.62951" y1="10.235" x2="2.22422" y2= "9.85995" />
    <line id="_170033248" class="fil0 str1" x1="3.38649" y1="10.3446" x2="2.9812" y2= "9.96956" />
    <line id="_170032912" class="fil0 str1" x1="3.31503" y1="10.3966" x2="2.9222" y2= "10.0331" />
    <line id="_170036440" class="fil0 str1" x1="3.24357" y1="10.4487" x2="2.86331" y2= "10.0968" />
    <line id="_170033512" class="fil0 str1" x1="3.17211" y1="10.5007" x2="2.80431" y2= "10.1604" />
    <line id="_170033272" class="fil0 str1" x1="3.10063" y1="10.5528" x2="2.74554" y2= "10.2242" />
    <line id="_170033752" class="fil0 str1" x1="3.02917" y1="10.6048" x2="2.68655" y2= "10.2878" />
   </g>
   <g>
    <path id="_170033776" class="fil0 str2" d="M4.88746 10.1876c0.0429055,0.0261811 0.0989016,0.012622 0.125079,-0.0302835 0.0261772,-0.0429016 0.0126181,-0.0989016 -0.0302835,-0.125079 -0.0429016,-0.0261772 -0.0989055,-0.0126142 -0.125079,0.0302835 -0.0261772,0.0429055 -0.0126181,0.0989055 0.0302835,0.125079z"/>
    <polygon id="_170033680" class="fil0 str2" points="3.57818,9.296 3.4915,9.21578 3.22409,9.50474 3.31079,9.58496 "/>
    <polygon id="_170032840" class="fil0 str2" points="2.7113,8.49381 2.62461,8.41359 2.35721,8.70256 2.4439,8.78277 "/>
    <polygon id="_170031352" class="fil0 str2" points="3.06555,7.93709 3.15224,8.0173 3.41963,7.72834 3.33294,7.64813 "/>
    <polygon id="_170030704" class="fil0 str2" points="3.93244,8.73928 4.01913,8.81949 4.28652,8.53053 4.19983,8.45031 "/>
    <path id="_170035360" class="fil0 str2" d="M5.3065 5.65306c-0.0109449,-0.0209764 -0.0288031,-0.0375079 -0.0505669,-0.0467953l-0.130933 0.141496c0.0109449,0.0209764 0.0288071,0.0375079 0.0505669,0.0467953l0.130933 -0.141496z"/>
    <path id="_170034064" class="fil0 str2" d="M6.12282 6.40846l-0.130937 0.141496c0.0109528,0.0209764 0.028811,0.0375079 0.0505709,0.0467913l0.130937 -0.141492c-0.0109488,-0.0209764 -0.0288071,-0.0375079 -0.0505709,-0.0467953z"/>
    <path id="_170034952" class="fil0 str2" d="M4.7239 6.18121c0.0109488,0.0209764 0.0288071,0.0375079 0.0505669,0.0467953l0.130937 -0.141496c-0.0109488,-0.0209803 -0.0288071,-0.0375079 -0.0505669,-0.0467953l-0.130937 0.141496z"/>
    <path id="_170033920" class="fil0 str2" d="M5.59079 6.9834c0.0109449,0.0209764 0.0288031,0.0375039 0.0505669,0.0467953l0.130933 -0.141496c-0.0109449,-0.0209764 -0.0288031,-0.0375118 -0.050563,-0.0467953l-0.130937 0.141496z"/>
    <path id="_170034712" class="fil0 str2" d="M1.05294 10.2497c-0.0109488,-0.0209764 -0.0288031,-0.0375079 -0.0505669,-0.0467953l-0.130937 0.141496c0.0109449,0.0209764 0.0288071,0.0375079 0.0505709,0.0467913l0.130933 -0.141492z"/>
    <path id="_170033320" class="fil0 str2" d="M0.651843 10.6831c-0.0109449,-0.0209764 -0.0288031,-0.0375079 -0.0505669,-0.0467953l-0.130933 0.141496c0.0109449,0.0209764 0.0288031,0.0375039 0.050563,0.0467953l0.130937 -0.141496z"/>
    <path id="_171234448" class="fil0 str2" d="M1.91983 11.0519c-0.0109488,-0.0209724 -0.0288031,-0.0375039 -0.0505709,-0.0467913l-0.130933 0.141496c0.0109488,0.0209764 0.0288071,0.0375079 0.0505669,0.0467913l0.130937 -0.141496z"/>
    <path id="_170045728" class="fil0 str2" d="M1.3878 11.6268l0.130937 -0.141496c-0.0109488,-0.0209803 -0.0288071,-0.0375118 -0.0505669,-0.0467953l-0.130937 0.141496c0.0109449,0.0209764 0.0288071,0.0375079 0.0505669,0.0467953z"/>
    <path id="_170041240" class="fil0 str2" d="M1.75587 7.04589c-0.0429055,-0.0261732 -0.0989016,-0.0126063 -0.125075,0.0303031 -0.0261693,0.0429016 -0.0126063,0.0989016 0.0303031,0.125075 0.0429055,0.0261693 0.0989055,0.0126024 0.125075,-0.0303031 0.0261732,-0.0429094 0.0126024,-0.0989055 -0.0303031,-0.125075z"/>
    <path id="_170045656" class="fil0 str2" d="M1.97705 8.5949c-0.0417283,-0.0254528 -0.096189,-0.0122598 -0.121642,0.0294724 -0.0254528,0.0417283 -0.0122598,0.0961929 0.0294685,0.121646 0.0417323,0.0254528 0.0961929,0.0122559 0.121646,-0.0294724 0.0254528,-0.0417323 0.0122598,-0.096189 -0.0294724,-0.121646z"/>
    <path id="_170045584" class="fil0 str2" d="M3.42187 9.93189c-0.0417283,-0.0254528 -0.096189,-0.0122638 -0.121642,0.0294685 -0.0254528,0.0417283 -0.0122598,0.0961929 0.0294685,0.121646 0.0417283,0.0254528 0.0961929,0.0122559 0.121646,-0.0294724 0.0254528,-0.0417323 0.0122559,-0.0961929 -0.0294724,-0.121642z"/>
    <path id="_170045512" class="fil0 str2" d="M4.75885 8.48707c-0.0417283,-0.0254528 -0.0961929,-0.0122559 -0.121642,0.0294685 -0.0254528,0.0417283 -0.0122559,0.0961929 0.0294724,0.121646 0.0417283,0.0254528 0.096189,0.0122559 0.121642,-0.0294724 0.0254528,-0.0417244 0.0122598,-0.096185 -0.0294724,-0.121642z"/>
    <path id="_170045440" class="fil0 str2" d="M3.31403 7.15009c-0.0417283,-0.0254528 -0.096189,-0.0122598 -0.121646,0.0294724 -0.0254528,0.0417283 -0.0122559,0.096189 0.0294724,0.121642 0.0417323,0.0254567 0.0961929,0.0122598 0.121646,-0.0294685 0.0254488,-0.0417283 0.0122598,-0.0961929 -0.0294724,-0.121646z"/>
    <path id="_170045368" class="fil0 str2" d="M3.54176 7.49166c-0.0287756,-0.0175512 -0.0663228,-0.00845669 -0.083874,0.0203189 -0.0175472,0.0287717 -0.00845276,0.0663228 0.0203189,0.083874 0.0287717,0.0175512 0.0663268,0.00845276 0.083874,-0.0203189 0.0175512,-0.0287756 0.00845276,-0.0663268 -0.0203189,-0.083874z"/>
    <path id="_170045296" class="fil0 str2" d="M3.16552 9.63724c-0.0287756,-0.0175512 -0.0663268,-0.00844882 -0.083874,0.0203228 -0.0175512,0.0287677 -0.00845669,0.0663228 0.0203189,0.083874 0.0287717,0.0175472 0.0663268,0.00844882 0.083874,-0.0203228 0.0175472,-0.0287717 0.00844882,-0.0663228 -0.0203189,-0.083874z"/>
    <path id="_170045224" class="fil0 str2" d="M4.40865 8.29385c-0.0287717,-0.0175512 -0.0663268,-0.00845276 -0.083874,0.020315 -0.0175512,0.0287756 -0.00844882,0.0663268 0.0203228,0.083874 0.0287717,0.0175512 0.0663228,0.00845669 0.083874,-0.0203189 0.0175472,-0.0287677 0.00845276,-0.0663189 -0.0203228,-0.0838701z"/>
    <path id="_170045152" class="fil0 str2" d="M2.29863 8.83505c-0.0287717,-0.0175472 -0.0663268,-0.00845276 -0.083874,0.0203189 -0.0175512,0.0287756 -0.00845276,0.0663268 0.0203189,0.083874 0.0287756,0.0175512 0.0663228,0.00845669 0.083874,-0.0203189 0.0175472,-0.0287717 0.00845276,-0.0663228 -0.0203189,-0.083874z"/>
    <path id="_170045080" class="fil0 str2" d="M1.64004 9.54676c-0.0287756,-0.0175512 -0.0663228,-0.00845276 -0.083874,0.0203189 -0.0175512,0.0287756 -0.00845276,0.0663228 0.0203228,0.083874 0.0287677,0.0175512 0.0663228,0.00845669 0.0838701,-0.020315 0.0175512,-0.0287756 0.00845276,-0.0663268 -0.0203189,-0.083878z"/>
    <path id="_170045008" class="fil0 str2" d="M2.50693 10.3489c-0.0287756,-0.0175512 -0.0663228,-0.00845276 -0.083874,0.0203189 -0.0175512,0.0287756 -0.00845276,0.0663228 0.0203189,0.083874 0.0287717,0.0175512 0.0663228,0.00845276 0.083878,-0.0203189 0.0175472,-0.0287717 0.00844882,-0.0663268 -0.0203228,-0.083874z"/>
    <path id="_170044936" class="fil0 str2" d="M4.20035 6.77995c-0.0287756,-0.0175512 -0.0663228,-0.00844882 -0.083874,0.0203228 -0.0175512,0.0287717 -0.00845276,0.0663228 0.0203189,0.083874 0.0287717,0.0175472 0.0663228,0.00845276 0.083874,-0.0203228 0.0175512,-0.0287717 0.00845276,-0.0663228 -0.0203189,-0.083874z"/>
    <path id="_170044864" class="fil0 str2" d="M5.06724 7.58214c-0.0287717,-0.0175512 -0.0663228,-0.00845276 -0.083874,0.0203189 -0.0175472,0.0287717 -0.00844882,0.0663268 0.0203228,0.083874 0.0287717,0.0175512 0.0663228,0.00845669 0.083874,-0.0203189 0.0175472,-0.0287717 0.00845276,-0.0663228 -0.0203189,-0.083874z"/>
    <polygon id="_170044792" class="fil0 str2" points="5.23545,7.33118 5.32214,7.41139 5.58954,7.12243 5.50285,7.04221 "/>
    <polygon id="_170027680" class="fil0 str2" points="4.36856,6.52899 4.45525,6.6092 4.72264,6.32024 4.63595,6.24002 "/>
    <polygon id="_170044720" class="fil0 str2" points="1.40827,9.90193 1.32158,9.82171 1.05419,10.1107 1.14088,10.1909 "/>
    <polygon id="_170036200" class="fil0 str2" points="2.27517,10.7041 2.18848,10.6239 1.92109,10.9129 2.00778,10.9931 "/>
   </g>
  </g>
  <g id="_171549776">
   <path id="_170043568" class="fil0 str0" d="M1.95249 3.68046l-0.198106 -1.52384c-0.00986614,-0.0753465 0.0142441,-0.151181 0.065815,-0.206996 0.051563,-0.055811 0.125728,-0.0858189 0.201614,-0.0819331l1.53459 0.079937 0 0c0.025311,-0.0182598 1.3042,-0.950449 1.99548,-1.44927 0.030378,-0.0219409 0.0720551,-0.019378 0.099563,0.00606299l0.916654 0.848457c0.0275079,0.0254409 0.0332323,0.0668071 0.0137283,0.0987992 -0.536358,0.879091 -1.27472,2.07472 -1.29098,2.10136l0 0 0.198106 1.52385c0.00986614,0.0753465 -0.014252,0.151181 -0.065815,0.206996 -0.0515709,0.055815 -0.125728,0.085815 -0.201622,0.0819331l-1.53458 -0.0799409 0 0c-0.025311,0.0182598 -1.34632,0.980839 -1.99549,1.44927 -0.030378,0.0219409 -0.0720512,0.019374 -0.0995591,-0.00606299l-0.916657 -0.848457c-0.0275079,-0.0254409 -0.0332362,-0.0668031 -0.0137323,-0.0987992 0.536362,-0.879098 1.27472,-2.07472 1.29098,-2.10136l0 0z"/>
   <g>
    <line id="_170043496" class="fil0 str1" x1="5.1461" y1="3.41781" x2="5.32656" y2= "3.5848" />
    <line id="_170043424" class="fil0 str1" x1="5.20509" y1="3.35423" x2="5.37294" y2= "3.50955" />
    <line id="_170043352" class="fil0 str1" x1="5.26399" y1="3.29057" x2="5.41931" y2= "3.4343" />
    <line id="_170043280" class="fil0 str1" x1="5.32298" y1="3.22698" x2="5.46569" y2= "3.35904" />
    <line id="_170043208" class="fil0 str1" x1="5.38175" y1="3.16319" x2="5.51207" y2= "3.28378" />
    <line id="_170043136" class="fil0 str1" x1="5.44075" y1="3.09961" x2="5.55844" y2= "3.20852" />
    <line id="_170043064" class="fil0 str1" x1="3.59301" y1="1.86246" x2="3.76092" y2= "2.01784" />
    <line id="_170036008" class="fil0 str1" x1="3.66448" y1="1.81042" x2="3.81992" y2= "1.95426" />
    <line id="_170032096" class="fil0 str1" x1="3.73594" y1="1.75839" x2="3.87881" y2= "1.8906" />
    <line id="_170032648" class="fil0 str1" x1="3.80741" y1="1.70635" x2="3.93781" y2= "1.82702" />
    <line id="_170034136" class="fil0 str1" x1="3.87889" y1="1.65431" x2="3.99658" y2= "1.76322" />
    <line id="_170032432" class="fil0 str1" x1="3.52155" y1="1.91448" x2="3.70203" y2= "2.0815" />
    <line id="_170031928" class="fil0 str1" x1="4.68376" y1="2.98998" x2="5.08906" y2= "3.36502" />
    <line id="_170032744" class="fil0 str1" x1="4.2803" y1="2.49844" x2="4.68559" y2= "2.87349" />
    <line id="_170031136" class="fil0 str1" x1="4.48194" y1="2.74413" x2="4.88723" y2= "3.11917" />
    <line id="_170035144" class="fil0 str1" x1="4.74276" y1="2.9264" x2="5.14805" y2= "3.30144" />
    <line id="_170031520" class="fil0 str1" x1="4.33929" y1="2.43487" x2="4.74459" y2= "2.80991" />
    <line id="_170031616" class="fil0 str1" x1="4.54093" y1="2.68055" x2="4.94622" y2= "3.05559" />
    <line id="_170031976" class="fil0 str1" x1="4.80165" y1="2.86273" x2="5.20694" y2= "3.23777" />
    <line id="_170031760" class="fil0 str1" x1="4.39819" y1="2.3712" x2="4.80348" y2= "2.74624" />
    <line id="_170033992" class="fil0 str1" x1="4.59983" y1="2.61688" x2="5.00512" y2= "2.99192" />
    <line id="_170033824" class="fil0 str1" x1="4.86065" y1="2.79915" x2="5.26594" y2= "3.17419" />
    <line id="_170030848" class="fil0 str1" x1="4.45719" y1="2.30762" x2="4.86248" y2= "2.68266" />
    <line id="_170032336" class="fil0 str1" x1="4.65882" y1="2.5533" x2="5.06411" y2= "2.92834" />
    <line id="_170029504" class="fil0 str1" x1="4.91941" y1="2.73535" x2="5.32471" y2= "3.1104" />
    <line id="_170029336" class="fil0 str1" x1="4.51595" y1="2.24382" x2="4.92124" y2= "2.61887" />
    <line id="_170028904" class="fil0 str1" x1="4.71759" y1="2.4895" x2="5.12288" y2= "2.86455" />
    <line id="_170029216" class="fil0 str1" x1="4.97841" y1="2.67178" x2="5.3837" y2= "3.04682" />
    <line id="_170034640" class="fil0 str1" x1="4.77659" y1="2.42593" x2="5.18188" y2= "2.80097" />
    <line id="_170031328" class="fil0 str1" x1="4.94446" y1="3.17213" x2="5.34976" y2= "3.54717" />
    <line id="_170029528" class="fil0 str1" x1="5.00346" y1="3.10855" x2="5.39613" y2= "3.47192" />
    <line id="_170048104" class="fil0 str1" x1="5.06235" y1="3.04489" x2="5.4425" y2= "3.39666" />
    <line id="_170042992" class="fil0 str1" x1="5.12135" y1="2.98131" x2="5.48888" y2= "3.32141" />
    <line id="_171231280" class="fil0 str1" x1="5.18011" y1="2.91751" x2="5.53526" y2= "3.24615" />
    <line id="_171240040" class="fil0 str1" x1="5.23911" y1="2.85393" x2="5.58163" y2= "3.17089" />
    <line id="_171240112" class="fil0 str1" x1="4.2214" y1="2.56214" x2="4.6267" y2= "2.93718" />
    <line id="_171240064" class="fil0 str1" x1="3.81796" y1="2.07061" x2="4.22325" y2= "2.44565" />
    <line id="_171240448" class="fil0 str1" x1="4.0196" y1="2.31629" x2="4.42489" y2= "2.69133" />
    <line id="_171240592" class="fil0 str1" x1="3.87695" y1="2.00703" x2="4.28225" y2= "2.38207" />
    <line id="_171240520" class="fil0 str1" x1="4.07859" y1="2.25271" x2="4.48389" y2= "2.62775" />
    <line id="_171244024" class="fil0 str1" x1="3.93585" y1="1.94336" x2="4.34114" y2= "2.31841" />
    <line id="_171243952" class="fil0 str1" x1="4.13749" y1="2.18904" x2="4.54278" y2= "2.56409" />
    <line id="_171243880" class="fil0 str1" x1="3.99485" y1="1.87978" x2="4.40014" y2= "2.25483" />
    <line id="_171243808" class="fil0 str1" x1="4.19648" y1="2.12546" x2="4.60178" y2= "2.50051" />
    <line id="_171243736" class="fil0 str1" x1="4.05361" y1="1.81599" x2="4.45891" y2= "2.19103" />
    <line id="_171243664" class="fil0 str1" x1="4.25525" y1="2.06167" x2="4.66054" y2= "2.43671" />
    <line id="_171243592" class="fil0 str1" x1="3.75907" y1="2.1343" x2="4.16436" y2= "2.50934" />
    <line id="_171243520" class="fil0 str1" x1="4.31425" y1="1.99809" x2="4.71954" y2= "2.37313" />
    <line id="_171243448" class="fil0 str1" x1="3.55727" y1="1.88848" x2="3.96256" y2= "2.26352" />
    <line id="_171243376" class="fil0 str1" x1="3.62874" y1="1.83644" x2="4.02156" y2= "2.19994" />
    <line id="_171243304" class="fil0 str1" x1="3.70021" y1="1.78441" x2="4.08045" y2= "2.13628" />
    <line id="_171243232" class="fil0 str1" x1="3.77168" y1="1.73238" x2="4.13945" y2= "2.0727" />
    <line id="_171243160" class="fil0 str1" x1="3.84315" y1="1.68033" x2="4.19822" y2= "2.0089" />
    <line id="_171243088" class="fil0 str1" x1="3.91462" y1="1.6283" x2="4.25721" y2= "1.94532" />
   </g>
   <g>
    <line id="_171242944" class="fil0 str1" x1="2.09766" y1="3.81527" x2="1.9172" y2= "3.64828" />
    <line id="_171242872" class="fil0 str1" x1="2.03867" y1="3.87885" x2="1.87082" y2= "3.72353" />
    <line id="_171242800" class="fil0 str1" x1="1.97977" y1="3.94252" x2="1.82444" y2= "3.79878" />
    <line id="_171242728" class="fil0 str1" x1="1.92078" y1="4.00609" x2="1.77807" y2= "3.87404" />
    <line id="_171242656" class="fil0 str1" x1="1.86201" y1="4.06989" x2="1.73169" y2= "3.9493" />
    <line id="_171242584" class="fil0 str1" x1="1.80301" y1="4.13347" x2="1.68531" y2= "4.02456" />
    <line id="_171242512" class="fil0 str1" x1="3.65076" y1="5.37062" x2="3.48284" y2= "5.21524" />
    <line id="_171242440" class="fil0 str1" x1="3.5793" y1="5.42267" x2="3.42384" y2= "5.27882" />
    <line id="_171242368" class="fil0 str1" x1="3.50783" y1="5.4747" x2="3.36494" y2= "5.34248" />
    <line id="_171242296" class="fil0 str1" x1="3.43637" y1="5.52674" x2="3.30595" y2= "5.40606" />
    <line id="_171242224" class="fil0 str1" x1="3.36491" y1="5.57879" x2="3.24718" y2= "5.46986" />
    <line id="_171242152" class="fil0 str1" x1="3.72221" y1="5.31859" x2="3.54173" y2= "5.15158" />
    <line id="_171240472" class="fil0 str1" x1="2.56" y1="4.24311" x2="2.1547" y2= "3.86806" />
    <line id="_171242056" class="fil0 str1" x1="2.96346" y1="4.73463" x2="2.55817" y2= "4.35959" />
    <line id="_171241984" class="fil0 str1" x1="2.76182" y1="4.48896" x2="2.35653" y2= "4.11391" />
    <line id="_171241912" class="fil0 str1" x1="2.501" y1="4.30669" x2="2.09571" y2= "3.93164" />
    <line id="_171241840" class="fil0 str1" x1="2.90447" y1="4.79822" x2="2.49917" y2= "4.42317" />
    <line id="_171241768" class="fil0 str1" x1="2.70283" y1="4.55254" x2="2.29754" y2= "4.17749" />
    <line id="_171241696" class="fil0 str1" x1="2.44211" y1="4.37035" x2="2.03681" y2= "3.99531" />
    <line id="_171241624" class="fil0 str1" x1="2.84557" y1="4.86188" x2="2.44028" y2= "4.48684" />
    <line id="_171241552" class="fil0 str1" x1="2.64393" y1="4.6162" x2="2.23864" y2= "4.24116" />
    <line id="_171241480" class="fil0 str1" x1="2.38311" y1="4.43393" x2="1.97782" y2= "4.05889" />
    <line id="_171241408" class="fil0 str1" x1="2.78657" y1="4.92546" x2="2.38128" y2= "4.55042" />
    <line id="_171241336" class="fil0 str1" x1="2.58494" y1="4.67978" x2="2.17965" y2= "4.30474" />
    <line id="_171241264" class="fil0 str1" x1="2.32434" y1="4.49773" x2="1.91905" y2= "4.12269" />
    <line id="_171241192" class="fil0 str1" x1="2.72781" y1="4.98926" x2="2.32252" y2= "4.61421" />
    <line id="_171241120" class="fil0 str1" x1="2.52617" y1="4.74357" x2="2.12088" y2= "4.36853" />
    <line id="_171241048" class="fil0 str1" x1="2.26535" y1="4.56131" x2="1.86006" y2= "4.18626" />
    <line id="_171240976" class="fil0 str1" x1="2.46717" y1="4.80716" x2="2.06188" y2= "4.43211" />
    <line id="_171240904" class="fil0 str1" x1="2.2993" y1="4.06095" x2="1.894" y2= "3.68591" />
    <line id="_171240832" class="fil0 str1" x1="2.2403" y1="4.12453" x2="1.84763" y2= "3.76116" />
    <line id="_171240760" class="fil0 str1" x1="2.18141" y1="4.1882" x2="1.80126" y2= "3.83642" />
    <line id="_171240688" class="fil0 str1" x1="2.12241" y1="4.25178" x2="1.75488" y2= "3.91167" />
    <line id="_171244096" class="fil0 str1" x1="2.06365" y1="4.31557" x2="1.7085" y2= "3.98693" />
    <line id="_171244144" class="fil0 str1" x1="2.00465" y1="4.37915" x2="1.66212" y2= "4.06219" />
    <line id="_171244168" class="fil0 str1" x1="3.02236" y1="4.67094" x2="2.61706" y2= "4.2959" />
    <line id="_171244360" class="fil0 str1" x1="3.4258" y1="5.16247" x2="3.02051" y2= "4.78743" />
    <line id="_171244288" class="fil0 str1" x1="3.22416" y1="4.91679" x2="2.81887" y2= "4.54175" />
    <line id="_171244456" class="fil0 str1" x1="3.36681" y1="5.22605" x2="2.96151" y2= "4.85101" />
    <line id="_171244504" class="fil0 str1" x1="3.16517" y1="4.98037" x2="2.75987" y2= "4.60533" />
    <line id="_171244576" class="fil0 str1" x1="3.30791" y1="5.28972" x2="2.90261" y2= "4.91468" />
    <line id="_171244672" class="fil0 str1" x1="3.10627" y1="5.04404" x2="2.70098" y2= "4.669" />
    <line id="_171244600" class="fil0 str1" x1="3.24891" y1="5.3533" x2="2.84362" y2= "4.97826" />
    <line id="_171244816" class="fil0 str1" x1="3.04728" y1="5.10762" x2="2.64198" y2= "4.73257" />
    <line id="_171545384" class="fil0 str1" x1="3.19015" y1="5.41709" x2="2.78485" y2= "5.04205" />
    <line id="_171541088" class="fil0 str1" x1="2.98851" y1="5.17141" x2="2.58322" y2= "4.79637" />
    <line id="_171541232" class="fil0 str1" x1="3.48469" y1="5.09879" x2="3.0794" y2= "4.72374" />
    <line id="_171545576" class="fil0 str1" x1="2.92951" y1="5.23499" x2="2.52422" y2= "4.85995" />
    <line id="_171547184" class="fil0 str1" x1="3.68649" y1="5.3446" x2="3.2812" y2= "4.96956" />
    <line id="_171541160" class="fil0 str1" x1="3.61503" y1="5.39664" x2="3.2222" y2= "5.03314" />
    <line id="_171541304" class="fil0 str1" x1="3.54357" y1="5.44869" x2="3.16331" y2= "5.0968" />
    <line id="_171545648" class="fil0 str1" x1="3.47211" y1="5.50072" x2="3.10431" y2= "5.16038" />
    <line id="_171545624" class="fil0 str1" x1="3.40063" y1="5.55277" x2="3.04554" y2= "5.22418" />
    <line id="_171547448" class="fil0 str1" x1="3.32917" y1="5.60481" x2="2.98655" y2= "5.28776" />
   </g>
   <g>
    <path id="_171547592" class="fil0 str2" d="M5.18746 5.18759c0.0429055,0.0261811 0.0989016,0.012622 0.125079,-0.0302835 0.0261772,-0.0429016 0.0126181,-0.0989016 -0.0302835,-0.125079 -0.0429016,-0.0261772 -0.0989055,-0.0126142 -0.125079,0.0302835 -0.0261772,0.0429055 -0.0126181,0.0989055 0.0302835,0.125079z"/>
    <polygon id="_171547664" class="fil0 str2" points="3.87818,4.296 3.7915,4.21578 3.52409,4.50474 3.61079,4.58496 "/>
    <polygon id="_171547736" class="fil0 str2" points="3.0113,3.49381 2.92461,3.41359 2.65721,3.70256 2.7439,3.78277 "/>
    <polygon id="_171547808" class="fil0 str2" points="3.36555,2.93709 3.45224,3.0173 3.71963,2.72834 3.63294,2.64813 "/>
    <polygon id="_171547880" class="fil0 str2" points="4.23244,3.73928 4.31913,3.81949 4.58652,3.53053 4.49983,3.45031 "/>
    <path id="_171547952" class="fil0 str2" d="M5.6065 0.653063c-0.0109449,-0.0209764 -0.0288031,-0.0375079 -0.0505669,-0.0467953l-0.130933 0.141496c0.0109449,0.0209764 0.0288071,0.0375079 0.0505669,0.0467953l0.130933 -0.141496z"/>
    <path id="_171548024" class="fil0 str2" d="M6.42282 1.40846l-0.130937 0.141496c0.0109528,0.0209764 0.028811,0.0375079 0.0505709,0.0467913l0.130937 -0.141492c-0.0109488,-0.0209764 -0.0288071,-0.0375079 -0.0505709,-0.0467953z"/>
    <path id="_171548096" class="fil0 str2" d="M5.0239 1.18121c0.0109488,0.0209764 0.0288071,0.0375079 0.0505669,0.0467953l0.130937 -0.141496c-0.0109488,-0.0209803 -0.0288071,-0.0375079 -0.0505669,-0.0467953l-0.130937 0.141496z"/>
    <path id="_171548168" class="fil0 str2" d="M5.89079 1.9834c0.0109449,0.0209764 0.0288031,0.0375039 0.0505669,0.0467953l0.130933 -0.141496c-0.0109449,-0.0209764 -0.0288031,-0.0375118 -0.050563,-0.0467953l-0.130937 0.141496z"/>
    <path id="_171548240" class="fil0 str2" d="M1.35294 5.24969c-0.0109488,-0.0209764 -0.0288031,-0.0375079 -0.0505669,-0.0467953l-0.130937 0.141496c0.0109449,0.0209764 0.0288071,0.0375079 0.0505709,0.0467913l0.130933 -0.141492z"/>
    <path id="_171548312" class="fil0 str2" d="M0.951843 5.68314c-0.0109449,-0.0209764 -0.0288031,-0.0375079 -0.0505669,-0.0467953l-0.130933 0.141496c0.0109449,0.0209764 0.0288031,0.0375039 0.050563,0.0467953l0.130937 -0.141496z"/>
    <path id="_171548384" class="fil0 str2" d="M2.21983 6.05188c-0.0109488,-0.0209724 -0.0288031,-0.0375039 -0.0505709,-0.0467913l-0.130933 0.141496c0.0109488,0.0209764 0.0288071,0.0375079 0.0505669,0.0467913l0.130937 -0.141496z"/>
    <path id="_171242080" class="fil0 str2" d="M1.6878 6.62682l0.130937 -0.141496c-0.0109488,-0.0209803 -0.0288071,-0.0375118 -0.0505669,-0.0467953l-0.130937 0.141496c0.0109449,0.0209764 0.0288071,0.0375079 0.0505669,0.0467953z"/>
    <path id="_171548480" class="fil0 str2" d="M2.05587 2.04589c-0.0429055,-0.0261732 -0.0989016,-0.0126063 -0.125075,0.0303031 -0.0261693,0.0429016 -0.0126063,0.0989016 0.0303031,0.125075 0.0429055,0.0261693 0.0989055,0.0126024 0.125075,-0.0303031 0.0261732,-0.0429094 0.0126024,-0.0989055 -0.0303031,-0.125075z"/>
    <path id="_171548552" class="fil0 str2" d="M2.27705 3.5949c-0.0417283,-0.0254528 -0.096189,-0.0122598 -0.121642,0.0294724 -0.0254528,0.0417283 -0.0122598,0.0961929 0.0294685,0.121646 0.0417323,0.0254528 0.0961929,0.0122559 0.121646,-0.0294724 0.0254528,-0.0417323 0.0122598,-0.096189 -0.0294724,-0.121646z"/>
    <path id="_171548624" class="fil0 str2" d="M3.72187 4.93189c-0.0417283,-0.0254528 -0.096189,-0.0122638 -0.121642,0.0294685 -0.0254528,0.0417283 -0.0122598,0.0961929 0.0294685,0.121646 0.0417283,0.0254528 0.0961929,0.0122559 0.121646,-0.0294724 0.0254528,-0.0417323 0.0122559,-0.0961929 -0.0294724,-0.121642z"/>
    <path id="_171548696" class="fil0 str2" d="M5.05885 3.48707c-0.0417283,-0.0254528 -0.0961929,-0.0122559 -0.121642,0.0294685 -0.0254528,0.0417283 -0.0122559,0.0961929 0.0294724,0.121646 0.0417283,0.0254528 0.096189,0.0122559 0.121642,-0.0294724 0.0254528,-0.0417244 0.0122598,-0.096185 -0.0294724,-0.121642z"/>
    <path id="_171548768" class="fil0 str2" d="M3.61403 2.15009c-0.0417283,-0.0254528 -0.096189,-0.0122598 -0.121646,0.0294724 -0.0254528,0.0417283 -0.0122559,0.096189 0.0294724,0.121642 0.0417323,0.0254567 0.0961929,0.0122598 0.121646,-0.0294685 0.0254488,-0.0417283 0.0122598,-0.0961929 -0.0294724,-0.121646z"/>
    <path id="_171548840" class="fil0 str2" d="M3.84176 2.49166c-0.0287756,-0.0175512 -0.0663228,-0.00845669 -0.083874,0.0203189 -0.0175472,0.0287717 -0.00845276,0.0663228 0.0203189,0.083874 0.0287717,0.0175512 0.0663268,0.00845276 0.083874,-0.0203189 0.0175512,-0.0287756 0.00845276,-0.0663268 -0.0203189,-0.083874z"/>
    <path id="_171548912" class="fil0 str2" d="M3.46552 4.63724c-0.0287756,-0.0175512 -0.0663268,-0.00844882 -0.083874,0.0203228 -0.0175512,0.0287677 -0.00845669,0.0663228 0.0203189,0.083874 0.0287717,0.0175472 0.0663268,0.00844882 0.083874,-0.0203228 0.0175472,-0.0287717 0.00844882,-0.0663228 -0.0203189,-0.083874z"/>
    <path id="_171548984" class="fil0 str2" d="M4.70865 3.29385c-0.0287717,-0.0175512 -0.0663268,-0.00845276 -0.083874,0.020315 -0.0175512,0.0287756 -0.00844882,0.0663268 0.0203228,0.083874 0.0287717,0.0175512 0.0663228,0.00845669 0.083874,-0.0203189 0.0175472,-0.0287677 0.00845276,-0.0663189 -0.0203228,-0.0838701z"/>
    <path id="_171549056" class="fil0 str2" d="M2.59863 3.83505c-0.0287717,-0.0175472 -0.0663268,-0.00845276 -0.083874,0.0203189 -0.0175512,0.0287756 -0.00845276,0.0663268 0.0203189,0.083874 0.0287756,0.0175512 0.0663228,0.00845669 0.083874,-0.0203189 0.0175472,-0.0287717 0.00845276,-0.0663228 -0.0203189,-0.083874z"/>
    <path id="_171549128" class="fil0 str2" d="M1.94004 4.54676c-0.0287756,-0.0175512 -0.0663228,-0.00845276 -0.083874,0.0203189 -0.0175512,0.0287756 -0.00845276,0.0663228 0.0203228,0.083874 0.0287677,0.0175512 0.0663228,0.00845669 0.0838701,-0.020315 0.0175512,-0.0287756 0.00845276,-0.0663268 -0.0203189,-0.083878z"/>
    <path id="_171549200" class="fil0 str2" d="M2.80693 5.34894c-0.0287756,-0.0175512 -0.0663228,-0.00845276 -0.083874,0.0203189 -0.0175512,0.0287756 -0.00845276,0.0663228 0.0203189,0.083874 0.0287717,0.0175512 0.0663228,0.00845276 0.083878,-0.0203189 0.0175472,-0.0287717 0.00844882,-0.0663268 -0.0203228,-0.083874z"/>
    <path id="_171549272" class="fil0 str2" d="M4.50035 1.77995c-0.0287756,-0.0175512 -0.0663228,-0.00844882 -0.083874,0.0203228 -0.0175512,0.0287717 -0.00845276,0.0663228 0.0203189,0.083874 0.0287717,0.0175472 0.0663228,0.00845276 0.083874,-0.0203228 0.0175512,-0.0287717 0.00845276,-0.0663228 -0.0203189,-0.083874z"/>
    <path id="_171549344" class="fil0 str2" d="M5.36724 2.58214c-0.0287717,-0.0175512 -0.0663228,-0.00845276 -0.083874,0.0203189 -0.0175472,0.0287717 -0.00844882,0.0663268 0.0203228,0.083874 0.0287717,0.0175512 0.0663228,0.00845669 0.083874,-0.0203189 0.0175472,-0.0287717 0.00845276,-0.0663228 -0.0203189,-0.083874z"/>
    <polygon id="_171549416" class="fil0 str2" points="5.53545,2.33118 5.62214,2.41139 5.88954,2.12243 5.80285,2.04221 "/>
    <polygon id="_171549488" class="fil0 str2" points="4.66856,1.52899 4.75525,1.6092 5.02264,1.32024 4.93595,1.24002 "/>
    <polygon id="_171549560" class="fil0 str2" points="1.70827,4.90193 1.62158,4.82171 1.35419,5.11067 1.44088,5.19089 "/>
    <polygon id="_171549632" class="fil0 str2" points="2.57517,5.7041 2.48848,5.62389 2.22109,5.91285 2.30778,5.99307 "/>
   </g>
  </g>
  <g id="_171558632">
   <path id="_171238144" class="fil0 str2" d="M3.74793 11.4744c-0.0562638,0 -0.108252,-0.0300157 -0.136382,-0.0787402 -0.0281299,-0.0487244 -0.0281299,-0.108752 0,-0.157476 0.0281299,-0.0487244 0.0801181,-0.0787402 0.136382,-0.0787402l0.787402 0c0.0562638,0 0.108252,0.0300157 0.136382,0.0787402 0.0281299,0.0487244 0.0281299,0.108752 0,0.157476 -0.0281299,0.0487244 -0.0801181,0.0787402 -0.136382,0.0787402l-0.787402 0z"/>
   <path id="_83190528" class="fil0 str0" d="M6.12248 11.4716l0.0695945 -0.0695984 0.0278386 0 0.250551 0.250547 0 0.0278386 -0.0695945 0.0695984 -4.51848 0 -0.0695945 -0.0695984 0 -0.0278386 0.250555 -0.250543 0.0278386 0 0.0695945 0.0695945 0.208787 -0.208787 0.0835157 0.0835118 -0.0375827 0.0375827c-0.00281496,-0.0028189 -0.00705118,-0.00366535 -0.0107323,-0.00214173 -0.0036811,0.00152362 -0.00608268,0.00511024 -0.00608268,0.00909449 -3.93701e-006,0.00398425 0.0023937,0.0075748 0.00607087,0.00910236 0.0036811,0.00152756 0.0079252,0.000677165 0.0107441,-0.0021378l0.0695984 0.0695984c-0.0028189,0.00281496 -0.00366535,0.00705118 -0.00214173,0.0107323 0.00151969,0.0036811 0.00511024,0.00608268 0.00909449,0.00608661 0.00398425,0 0.0075748,-0.00239764 0.00910236,-0.0060748 0.00152756,-0.0036811 0.000677165,-0.0079252 -0.0021378,-0.0107441l0.0375827 -0.0375827 0.0487205 0.0487205c-0.0028189,0.00281496 -0.00366535,0.00704724 -0.00214173,0.0107283 0.00151969,0.0036811 0.00511024,0.00608268 0.00909449,0.00608661 0.00398425,3.93701e-006 0.0075748,-0.0023937 0.00910236,-0.0060748 0.00152756,-0.00367717 0.000677165,-0.0079252 -0.0021378,-0.0107402l0.0751654 -0.0751654c0.00281496,0.0028189 0.00705118,0.00366142 0.0107323,0.00214173 0.0036811,-0.00152362 0.00608268,-0.00511417 0.00608661,-0.00909843 0,-0.00398031 -0.00239764,-0.0075748 -0.0060748,-0.00910236 -0.0036811,-0.00152362 -0.0079252,-0.000677165 -0.0107441,0.0021378l-0.0487165 -0.0487165 0.0375827 -0.0375787c0.00281496,0.0028189 0.00704724,0.00366142 0.0107283,0.00214173 0.00368504,-0.00152362 0.00608661,-0.00511417 0.00608661,-0.00909449 3.93701e-006,-0.00398425 -0.0023937,-0.00757874 -0.0060748,-0.0091063 -0.00367717,-0.00152362 -0.00792126,-0.000677165 -0.0107402,0.0021378l-0.0695984 -0.0695945c0.0028189,-0.00281496 0.00366535,-0.00705118 0.00214173,-0.0107323 -0.00152362,-0.0036811 -0.00511024,-0.00608268 -0.00909449,-0.00608661 -0.00398425,-3.93701e-006 -0.00757874,0.0023937 -0.00910236,0.0060748 -0.00152756,0.00367717 -0.000681102,0.0079252 0.00213386,0.0107441l-0.0375827 0.0375827 -0.0835157 -0.0835197 0.139972 -0.139969c0.097248,-0.0972244 0.229402,-0.151248 0.366906,-0.149909l0.197949 0 0 0.11811 -0.0531496 0c3.93701e-006,-0.00398031 -0.0023937,-0.0075748 -0.0060748,-0.00910236 -0.00367717,-0.00152362 -0.00791339,-0.000685039 -0.0107323,0.00212992 -0.0028189,0.00281496 -0.00366535,0.00705118 -0.00214173,0.0107323 0.00151969,0.0036811 0.00512205,0.00608268 0.0091063,0.00608268l0 0.0984252c-0.00398425,0 -0.0075748,0.00239764 -0.00910236,0.0060748 -0.00152756,0.0036811 -0.000685039,0.00791732 0.00212992,0.0107362 0.00281496,0.0028189 0.00704724,0.00366142 0.0107283,0.00214173 0.0036811,-0.00152362 0.00608661,-0.00512598 0.00608661,-0.00911024l0.0531496 0 0 0.0688976c-0.00398425,0 -0.0075748,0.00239764 -0.00910236,0.0060748 -0.00152756,0.0036811 -0.000685039,0.00791732 0.00212992,0.0107362 0.00281496,0.0028189 0.00704724,0.00366142 0.0107283,0.00214173 0.0036811,-0.00152362 0.00608661,-0.00512598 0.00608661,-0.00911024l0.106299 0c0,0.00398425 0.0023937,0.00757874 0.0060748,0.0091063 0.0036811,0.00152362 0.00791732,0.000685039 0.0107362,-0.00212992 0.00281496,-0.00281496 0.00366142,-0.00705118 0.00214173,-0.0107323 -0.00152362,-0.0036811 -0.00512598,-0.00608268 -0.00911024,-0.00608661l0 -0.0688976 0.0531496 0c0,0.00398425 0.0023937,0.00757874 0.0060748,0.0091063 0.0036811,0.00152362 0.00791732,0.000685039 0.0107362,-0.00212992 0.00281496,-0.00281496 0.00366142,-0.00705118 0.00214173,-0.0107323 -0.00152362,-0.0036811 -0.00512598,-0.00608268 -0.00911024,-0.00608661l0 -0.0984252c0.00398425,3.93701e-006 0.00757874,-0.0023937 0.00910236,-0.00607087 0.00152756,-0.0036811 0.000688976,-0.00791732 -0.00212598,-0.0107362 -0.00281496,-0.0028189 -0.00705118,-0.00366142 -0.0107323,-0.00214173 -0.0036811,0.00152362 -0.00608268,0.00512598 -0.00608661,0.0091063l-0.0531496 0 0 -0.11811 0.133858 0 0 -0.0984252 0.019685 -0.019685 0.354331 0 0.019685 0.019685 0 0.0984252 0.64922 0 0 -0.0984252 0.019685 -0.019685 0.354331 0 0.019685 0.019685 0 0.0984252 0.133858 0 0 0.11811 -0.0531496 0c0,-0.00398031 -0.00239764,-0.0075748 -0.0060748,-0.00910236 -0.0036811,-0.00152362 -0.00791732,-0.000685039 -0.0107362,0.00212992 -0.0028189,0.00281496 -0.00366142,0.00705118 -0.00214173,0.0107323 0.00152362,0.0036811 0.00512598,0.00608268 0.00911024,0.00608268l0 0.0984252c-0.00398425,0 -0.00757874,0.00239764 -0.00910236,0.0060748 -0.00152756,0.0036811 -0.000688976,0.00791732 0.00212598,0.0107362 0.00281496,0.0028189 0.00705118,0.00366142 0.0107323,0.00214173 0.0036811,-0.00152362 0.00608268,-0.00512598 0.00608661,-0.00911024l0.0531496 0 0 0.0688976c-0.00398425,0 -0.00757874,0.00239764 -0.00910236,0.0060748 -0.00152756,0.0036811 -0.000688976,0.00791732 0.00212598,0.0107362 0.00281496,0.0028189 0.00705118,0.00366142 0.0107323,0.00214173 0.0036811,-0.00152362 0.00608268,-0.00512598 0.00608661,-0.00911024l0.106299 0c-3.93701e-006,0.00398425 0.0023937,0.00757874 0.0060748,0.0091063 0.00367717,0.00152362 0.00791339,0.000685039 0.0107323,-0.00212992 0.0028189,-0.00281496 0.00366535,-0.00705118 0.00214173,-0.0107323 -0.00152362,-0.0036811 -0.00512205,-0.00608268 -0.0091063,-0.00608661l0 -0.0688976 0.0531496 0c-3.93701e-006,0.00398425 0.0023937,0.00757874 0.0060748,0.0091063 0.00367717,0.00152362 0.00791339,0.000685039 0.0107323,-0.00212992 0.0028189,-0.00281496 0.00366535,-0.00705118 0.00214173,-0.0107323 -0.00152362,-0.0036811 -0.00512205,-0.00608268 -0.0091063,-0.00608661l0 -0.0984252c0.00398425,3.93701e-006 0.0075748,-0.0023937 0.00910236,-0.00607087 0.00152756,-0.0036811 0.000685039,-0.00791732 -0.00212992,-0.0107362 -0.00281496,-0.0028189 -0.00705118,-0.00366142 -0.0107323,-0.00214173 -0.0036811,0.00152362 -0.00608268,0.00512598 -0.00608268,0.0091063l-0.0531496 0 0 -0.11811 0.197949 0c0.1375,-0.00129528 0.269669,0.0526732 0.366902,0.149909l0.139972 0.139969 -0.0835197 0.0835197 -0.0375827 -0.0375827c0.0028189,-0.00281496 0.00366535,-0.00705118 0.00214173,-0.0107323 -0.00151969,-0.0036811 -0.00511024,-0.00608268 -0.00909449,-0.00608661 -0.00398425,-3.93701e-006 -0.0075748,0.0023937 -0.00910236,0.0060748 -0.00152756,0.00367717 -0.000677165,0.0079252 0.0021378,0.0107441l-0.0695984 0.0695945c-0.00281496,-0.0028189 -0.00705118,-0.00366142 -0.0107323,-0.00214173 -0.0036811,0.00152362 -0.00608268,0.00511417 -0.00608268,0.00909449 -3.93701e-006,0.00398425 0.0023937,0.00757874 0.00607087,0.0091063 0.0036811,0.00152362 0.0079252,0.000677165 0.0107441,-0.0021378l0.0375827 0.0375787 -0.0487165 0.0487165c-0.00281496,-0.0028189 -0.00705118,-0.00366142 -0.0107323,-0.00214173 -0.0036811,0.00152362 -0.00608268,0.00511417 -0.00608661,0.00909449 0,0.00398425 0.00239764,0.00757874 0.0060748,0.00910236 0.0036811,0.00152756 0.0079252,0.000681102 0.0107441,-0.00213386l0.0751654 0.0751654c-0.0028189,0.00281496 -0.00366535,0.00704724 -0.00214173,0.0107283 0.00151969,0.0036811 0.00511024,0.00608268 0.00909449,0.00608661 0.00398425,3.93701e-006 0.0075748,-0.0023937 0.00910236,-0.0060748 0.00152756,-0.00367717 0.000677165,-0.0079252 -0.0021378,-0.0107402l0.0487205 -0.0487205 0.0375827 0.0375827c-0.0028189,0.00281496 -0.00366535,0.00705118 -0.00214173,0.0107323 0.00151969,0.0036811 0.00511024,0.00608268 0.00909449,0.00608661 0.00398425,0 0.0075748,-0.00239764 0.00910236,-0.0060748 0.00152756,-0.0036811 0.000677165,-0.0079252 -0.0021378,-0.0107441l0.0695984 -0.0695984c0.00281496,0.0028189 0.00705118,0.00366535 0.0107323,0.00214173 0.0036811,-0.00151969 0.00608268,-0.00511024 0.00608268,-0.00909449 3.93701e-006,-0.00398425 -0.0023937,-0.0075748 -0.00607087,-0.00910236 -0.0036811,-0.00152756 -0.0079252,-0.000677165 -0.0107441,0.0021378l-0.0375827 -0.0375827 0.0835157 -0.0835118 0.208791 0.208787z"/>
  </g>
  <g id="_171553592">
   <path id="_171559568" class="fil0 str2" d="M3.07163 0.525598c0.0562638,0 0.108252,0.0300157 0.136382,0.0787402 0.0281299,0.0487244 0.0281299,0.108752 0,0.157476 -0.0281299,0.0487244 -0.0801181,0.0787402 -0.136382,0.0787402l-0.787402 0c-0.0562638,0 -0.108252,-0.0300157 -0.136382,-0.0787402 -0.0281299,-0.0487244 -0.0281299,-0.108752 0,-0.157476 0.0281299,-0.0487244 0.0801181,-0.0787402 0.136382,-0.0787402l0.787402 0z"/>
   <path id="_171560000" class="fil0 str0" d="M0.697083 0.528394l-0.0695945 0.0695984 -0.0278386 0 -0.250551 -0.250547 0 -0.0278386 0.0695945 -0.0695984 4.51848 0 0.0695945 0.0695984 0 0.0278386 -0.250555 0.250543 -0.0278386 0 -0.0695945 -0.0695945 -0.208787 0.208787 -0.0835157 -0.0835118 0.0375827 -0.0375827c0.00281496,0.0028189 0.00705118,0.00366535 0.0107323,0.00214173 0.0036811,-0.00152362 0.00608268,-0.00511024 0.00608268,-0.00909449 3.93701e-006,-0.00398425 -0.0023937,-0.0075748 -0.00607087,-0.00910236 -0.0036811,-0.00152756 -0.0079252,-0.000677165 -0.0107441,0.0021378l-0.0695984 -0.0695984c0.0028189,-0.00281496 0.00366535,-0.00705118 0.00214173,-0.0107323 -0.00151969,-0.0036811 -0.00511024,-0.00608268 -0.00909449,-0.00608661 -0.00398425,0 -0.0075748,0.00239764 -0.00910236,0.0060748 -0.00152756,0.0036811 -0.000677165,0.0079252 0.0021378,0.0107441l-0.0375827 0.0375827 -0.0487205 -0.0487205c0.0028189,-0.00281496 0.00366535,-0.00704724 0.00214173,-0.0107283 -0.00151969,-0.0036811 -0.00511024,-0.00608268 -0.00909449,-0.00608661 -0.00398425,-3.93701e-006 -0.0075748,0.0023937 -0.00910236,0.0060748 -0.00152756,0.00367717 -0.000677165,0.0079252 0.0021378,0.0107402l-0.0751654 0.0751654c-0.00281496,-0.0028189 -0.00705118,-0.00366142 -0.0107323,-0.00214173 -0.0036811,0.00152362 -0.00608268,0.00511417 -0.00608661,0.00909843 0,0.00398031 0.00239764,0.0075748 0.0060748,0.00910236 0.0036811,0.00152362 0.0079252,0.000677165 0.0107441,-0.0021378l0.0487165 0.0487165 -0.0375827 0.0375787c-0.00281496,-0.0028189 -0.00704724,-0.00366142 -0.0107283,-0.00214173 -0.00368504,0.00152362 -0.00608661,0.00511417 -0.00608661,0.00909449 -3.93701e-006,0.00398425 0.0023937,0.00757874 0.0060748,0.0091063 0.00367717,0.00152362 0.00792126,0.000677165 0.0107402,-0.0021378l0.0695984 0.0695945c-0.0028189,0.00281496 -0.00366535,0.00705118 -0.00214173,0.0107323 0.00152362,0.0036811 0.00511024,0.00608268 0.00909449,0.00608661 0.00398425,3.93701e-006 0.00757874,-0.0023937 0.00910236,-0.0060748 0.00152756,-0.00367717 0.000681102,-0.0079252 -0.00213386,-0.0107441l0.0375827 -0.0375827 0.0835157 0.0835197 -0.139972 0.139969c-0.097248,0.0972244 -0.229402,0.151248 -0.366906,0.149909l-0.197949 0 0 -0.11811 0.0531496 0c-3.93701e-006,0.00398031 0.0023937,0.0075748 0.0060748,0.00910236 0.00367717,0.00152362 0.00791339,0.000685039 0.0107323,-0.00212992 0.0028189,-0.00281496 0.00366535,-0.00705118 0.00214173,-0.0107323 -0.00151969,-0.0036811 -0.00512205,-0.00608268 -0.0091063,-0.00608268l0 -0.0984252c0.00398425,0 0.0075748,-0.00239764 0.00910236,-0.0060748 0.00152756,-0.0036811 0.000685039,-0.00791732 -0.00212992,-0.0107362 -0.00281496,-0.0028189 -0.00704724,-0.00366142 -0.0107283,-0.00214173 -0.0036811,0.00152362 -0.00608661,0.00512598 -0.00608661,0.00911024l-0.0531496 0 0 -0.0688976c0.00398425,0 0.0075748,-0.00239764 0.00910236,-0.0060748 0.00152756,-0.0036811 0.000685039,-0.00791732 -0.00212992,-0.0107362 -0.00281496,-0.0028189 -0.00704724,-0.00366142 -0.0107283,-0.00214173 -0.0036811,0.00152362 -0.00608661,0.00512598 -0.00608661,0.00911024l-0.106299 0c0,-0.00398425 -0.0023937,-0.00757874 -0.0060748,-0.0091063 -0.0036811,-0.00152362 -0.00791732,-0.000685039 -0.0107362,0.00212992 -0.00281496,0.00281496 -0.00366142,0.00705118 -0.00214173,0.0107323 0.00152362,0.0036811 0.00512598,0.00608268 0.00911024,0.00608661l0 0.0688976 -0.0531496 0c0,-0.00398425 -0.0023937,-0.00757874 -0.0060748,-0.0091063 -0.0036811,-0.00152362 -0.00791732,-0.000685039 -0.0107362,0.00212992 -0.00281496,0.00281496 -0.00366142,0.00705118 -0.00214173,0.0107323 0.00152362,0.0036811 0.00512598,0.00608268 0.00911024,0.00608661l0 0.0984252c-0.00398425,-3.93701e-006 -0.00757874,0.0023937 -0.00910236,0.00607087 -0.00152756,0.0036811 -0.000688976,0.00791732 0.00212598,0.0107362 0.00281496,0.0028189 0.00705118,0.00366142 0.0107323,0.00214173 0.0036811,-0.00152362 0.00608268,-0.00512598 0.00608661,-0.0091063l0.0531496 0 0 0.11811 -0.133858 0 0 0.0984252 -0.019685 0.019685 -0.354331 0 -0.019685 -0.019685 0 -0.0984252 -0.64922 0 0 0.0984252 -0.019685 0.019685 -0.354331 0 -0.019685 -0.019685 0 -0.0984252 -0.133858 0 0 -0.11811 0.0531496 0c0,0.00398031 0.00239764,0.0075748 0.0060748,0.00910236 0.0036811,0.00152362 0.00791732,0.000685039 0.0107362,-0.00212992 0.0028189,-0.00281496 0.00366142,-0.00705118 0.00214173,-0.0107323 -0.00152362,-0.0036811 -0.00512598,-0.00608268 -0.00911024,-0.00608268l0 -0.0984252c0.00398425,0 0.00757874,-0.00239764 0.00910236,-0.0060748 0.00152756,-0.0036811 0.000688976,-0.00791732 -0.00212598,-0.0107362 -0.00281496,-0.0028189 -0.00705118,-0.00366142 -0.0107323,-0.00214173 -0.0036811,0.00152362 -0.00608268,0.00512598 -0.00608661,0.00911024l-0.0531496 0 0 -0.0688976c0.00398425,0 0.00757874,-0.00239764 0.00910236,-0.0060748 0.00152756,-0.0036811 0.000688976,-0.00791732 -0.00212598,-0.0107362 -0.00281496,-0.0028189 -0.00705118,-0.00366142 -0.0107323,-0.00214173 -0.0036811,0.00152362 -0.00608268,0.00512598 -0.00608661,0.00911024l-0.106299 0c3.93701e-006,-0.00398425 -0.0023937,-0.00757874 -0.0060748,-0.0091063 -0.00367717,-0.00152362 -0.00791339,-0.000685039 -0.0107323,0.00212992 -0.0028189,0.00281496 -0.00366535,0.00705118 -0.00214173,0.0107323 0.00152362,0.0036811 0.00512205,0.00608268 0.0091063,0.00608661l0 0.0688976 -0.0531496 0c3.93701e-006,-0.00398425 -0.0023937,-0.00757874 -0.0060748,-0.0091063 -0.00367717,-0.00152362 -0.00791339,-0.000685039 -0.0107323,0.00212992 -0.0028189,0.00281496 -0.00366535,0.00705118 -0.00214173,0.0107323 0.00152362,0.0036811 0.00512205,0.00608268 0.0091063,0.00608661l0 0.0984252c-0.00398425,-3.93701e-006 -0.0075748,0.0023937 -0.00910236,0.00607087 -0.00152756,0.0036811 -0.000685039,0.00791732 0.00212992,0.0107362 0.00281496,0.0028189 0.00705118,0.00366142 0.0107323,0.00214173 0.0036811,-0.00152362 0.00608268,-0.00512598 0.00608268,-0.0091063l0.0531496 0 0 0.11811 -0.197949 0c-0.1375,0.00129528 -0.269669,-0.0526732 -0.366902,-0.149909l-0.139972 -0.139969 0.0835197 -0.0835197 0.0375827 0.0375827c-0.0028189,0.00281496 -0.00366535,0.00705118 -0.00214173,0.0107323 0.00151969,0.0036811 0.00511024,0.00608268 0.00909449,0.00608661 0.00398425,3.93701e-006 0.0075748,-0.0023937 0.00910236,-0.0060748 0.00152756,-0.00367717 0.000677165,-0.0079252 -0.0021378,-0.0107441l0.0695984 -0.0695945c0.00281496,0.0028189 0.00705118,0.00366142 0.0107323,0.00214173 0.0036811,-0.00152362 0.00608268,-0.00511417 0.00608268,-0.00909449 3.93701e-006,-0.00398425 -0.0023937,-0.00757874 -0.00607087,-0.0091063 -0.0036811,-0.00152362 -0.0079252,-0.000677165 -0.0107441,0.0021378l-0.0375827 -0.0375787 0.0487165 -0.0487165c0.00281496,0.0028189 0.00705118,0.00366142 0.0107323,0.00214173 0.0036811,-0.00152362 0.00608268,-0.00511417 0.00608661,-0.00909449 0,-0.00398425 -0.00239764,-0.00757874 -0.0060748,-0.00910236 -0.0036811,-0.00152756 -0.0079252,-0.000681102 -0.0107441,0.00213386l-0.0751654 -0.0751654c0.0028189,-0.00281496 0.00366535,-0.00704724 0.00214173,-0.0107283 -0.00151969,-0.0036811 -0.00511024,-0.00608268 -0.00909449,-0.00608661 -0.00398425,-3.93701e-006 -0.0075748,0.0023937 -0.00910236,0.0060748 -0.00152756,0.00367717 -0.000677165,0.0079252 0.0021378,0.0107402l-0.0487205 0.0487205 -0.0375827 -0.0375827c0.0028189,-0.00281496 0.00366535,-0.00705118 0.00214173,-0.0107323 -0.00151969,-0.0036811 -0.00511024,-0.00608268 -0.00909449,-0.00608661 -0.00398425,0 -0.0075748,0.00239764 -0.00910236,0.0060748 -0.00152756,0.0036811 -0.000677165,0.0079252 0.0021378,0.0107441l-0.0695984 0.0695984c-0.00281496,-0.0028189 -0.00705118,-0.00366535 -0.0107323,-0.00214173 -0.0036811,0.00151969 -0.00608268,0.00511024 -0.00608268,0.00909449 -3.93701e-006,0.00398425 0.0023937,0.0075748 0.00607087,0.00910236 0.0036811,0.00152756 0.0079252,0.000677165 0.0107441,-0.0021378l0.0375827 0.0375827 -0.0835157 0.0835118 -0.208791 -0.208787z"/>
  </g>
  <g id="_171554888">
   <path id="_171555416" class="fil0 str2" d="M0.525591 3.26246c0,0.0562638 0.0300157,0.108252 0.0787402,0.136382 0.0487244,0.0281299 0.108752,0.0281299 0.157476,0 0.0487244,-0.0281299 0.0787402,-0.0801181 0.0787402,-0.136382l0 -0.787402c0,-0.0562638 -0.0300157,-0.108252 -0.0787402,-0.136382 -0.0487244,-0.0281299 -0.108752,-0.0281299 -0.157476,0 -0.0487244,0.0281299 -0.0787402,0.0801181 -0.0787402,0.136382l0 0.787402z"/>
   <path id="_171555464" class="fil0 str0" d="M0.528386 0.887906l0.0695984 -0.0695945 0 -0.0278386 -0.250547 -0.250551 -0.0278386 0 -0.0695984 0.0695945 0 4.51848 0.0695984 0.0695945 0.0278386 0 0.250543 -0.250555 0 -0.0278386 -0.0695945 -0.0695945 0.208787 -0.208787 -0.0835118 -0.0835157 -0.0375827 0.0375827c0.0028189,0.00281496 0.00366535,0.00705118 0.00214173,0.0107323 -0.00152362,0.0036811 -0.00511024,0.00608268 -0.00909449,0.00608268 -0.00398425,3.93701e-006 -0.0075748,-0.0023937 -0.00910236,-0.00607087 -0.00152756,-0.0036811 -0.000677165,-0.0079252 0.0021378,-0.0107441l-0.0695984 -0.0695984c-0.00281496,0.0028189 -0.00705118,0.00366535 -0.0107323,0.00214173 -0.0036811,-0.00151969 -0.00608268,-0.00511024 -0.00608661,-0.00909449 0,-0.00398425 0.00239764,-0.0075748 0.0060748,-0.00910236 0.0036811,-0.00152756 0.0079252,-0.000677165 0.0107441,0.0021378l0.0375827 -0.0375827 -0.0487205 -0.0487205c-0.00281496,0.0028189 -0.00704724,0.00366535 -0.0107283,0.00214173 -0.0036811,-0.00151969 -0.00608268,-0.00511024 -0.00608661,-0.00909449 -3.93701e-006,-0.00398425 0.0023937,-0.0075748 0.0060748,-0.00910236 0.00367717,-0.00152756 0.0079252,-0.000677165 0.0107402,0.0021378l0.0751654 -0.0751654c-0.0028189,-0.00281496 -0.00366142,-0.00705118 -0.00214173,-0.0107323 0.00152362,-0.0036811 0.00511417,-0.00608268 0.00909843,-0.00608661 0.00398031,0 0.0075748,0.00239764 0.00910236,0.0060748 0.00152362,0.0036811 0.000677165,0.0079252 -0.0021378,0.0107441l0.0487165 0.0487165 0.0375787 -0.0375827c-0.0028189,-0.00281496 -0.00366142,-0.00704724 -0.00214173,-0.0107283 0.00152362,-0.00368504 0.00511417,-0.00608661 0.00909449,-0.00608661 0.00398425,-3.93701e-006 0.00757874,0.0023937 0.0091063,0.0060748 0.00152362,0.00367717 0.000677165,0.00792126 -0.0021378,0.0107402l0.0695945 0.0695984c0.00281496,-0.0028189 0.00705118,-0.00366535 0.0107323,-0.00214173 0.0036811,0.00152362 0.00608268,0.00511024 0.00608661,0.00909449 3.93701e-006,0.00398425 -0.0023937,0.00757874 -0.0060748,0.00910236 -0.00367717,0.00152756 -0.0079252,0.000681102 -0.0107441,-0.00213386l-0.0375827 0.0375827 0.0835197 0.0835157 0.139969 -0.139972c0.0972244,-0.097248 0.151248,-0.229402 0.149909,-0.366906l0 -0.197949 -0.11811 0 0 0.0531496c0.00398031,-3.93701e-006 0.0075748,0.0023937 0.00910236,0.0060748 0.00152362,0.00367717 0.000685039,0.00791339 -0.00212992,0.0107323 -0.00281496,0.0028189 -0.00705118,0.00366535 -0.0107323,0.00214173 -0.0036811,-0.00151969 -0.00608268,-0.00512205 -0.00608268,-0.0091063l-0.0984252 0c0,0.00398425 -0.00239764,0.0075748 -0.0060748,0.00910236 -0.0036811,0.00152756 -0.00791732,0.000685039 -0.0107362,-0.00212992 -0.0028189,-0.00281496 -0.00366142,-0.00704724 -0.00214173,-0.0107283 0.00152362,-0.0036811 0.00512598,-0.00608661 0.00911024,-0.00608661l0 -0.0531496 -0.0688976 0c0,0.00398425 -0.00239764,0.0075748 -0.0060748,0.00910236 -0.0036811,0.00152756 -0.00791732,0.000685039 -0.0107362,-0.00212992 -0.0028189,-0.00281496 -0.00366142,-0.00704724 -0.00214173,-0.0107283 0.00152362,-0.0036811 0.00512598,-0.00608661 0.00911024,-0.00608661l0 -0.106299c-0.00398425,0 -0.00757874,-0.0023937 -0.0091063,-0.0060748 -0.00152362,-0.0036811 -0.000685039,-0.00791732 0.00212992,-0.0107362 0.00281496,-0.00281496 0.00705118,-0.00366142 0.0107323,-0.00214173 0.0036811,0.00152362 0.00608268,0.00512598 0.00608661,0.00911024l0.0688976 0 0 -0.0531496c-0.00398425,0 -0.00757874,-0.0023937 -0.0091063,-0.0060748 -0.00152362,-0.0036811 -0.000685039,-0.00791732 0.00212992,-0.0107362 0.00281496,-0.00281496 0.00705118,-0.00366142 0.0107323,-0.00214173 0.0036811,0.00152362 0.00608268,0.00512598 0.00608661,0.00911024l0.0984252 0c-3.93701e-006,-0.00398425 0.0023937,-0.00757874 0.00607087,-0.00910236 0.0036811,-0.00152756 0.00791732,-0.000688976 0.0107362,0.00212598 0.0028189,0.00281496 0.00366142,0.00705118 0.00214173,0.0107323 -0.00152362,0.0036811 -0.00512598,0.00608268 -0.0091063,0.00608661l0 0.0531496 0.11811 0 0 -0.133858 0.0984252 0 0.019685 -0.019685 0 -0.354331 -0.019685 -0.019685 -0.0984252 0 0 -0.64922 0.0984252 0 0.019685 -0.019685 0 -0.354331 -0.019685 -0.019685 -0.0984252 0 0 -0.133858 -0.11811 0 0 0.0531496c0.00398031,0 0.0075748,0.00239764 0.00910236,0.0060748 0.00152362,0.0036811 0.000685039,0.00791732 -0.00212992,0.0107362 -0.00281496,0.0028189 -0.00705118,0.00366142 -0.0107323,0.00214173 -0.0036811,-0.00152362 -0.00608268,-0.00512598 -0.00608268,-0.00911024l-0.0984252 0c0,0.00398425 -0.00239764,0.00757874 -0.0060748,0.00910236 -0.0036811,0.00152756 -0.00791732,0.000688976 -0.0107362,-0.00212598 -0.0028189,-0.00281496 -0.00366142,-0.00705118 -0.00214173,-0.0107323 0.00152362,-0.0036811 0.00512598,-0.00608268 0.00911024,-0.00608661l0 -0.0531496 -0.0688976 0c0,0.00398425 -0.00239764,0.00757874 -0.0060748,0.00910236 -0.0036811,0.00152756 -0.00791732,0.000688976 -0.0107362,-0.00212598 -0.0028189,-0.00281496 -0.00366142,-0.00705118 -0.00214173,-0.0107323 0.00152362,-0.0036811 0.00512598,-0.00608268 0.00911024,-0.00608661l0 -0.106299c-0.00398425,3.93701e-006 -0.00757874,-0.0023937 -0.0091063,-0.0060748 -0.00152362,-0.00367717 -0.000685039,-0.00791339 0.00212992,-0.0107323 0.00281496,-0.0028189 0.00705118,-0.00366535 0.0107323,-0.00214173 0.0036811,0.00152362 0.00608268,0.00512205 0.00608661,0.0091063l0.0688976 0 0 -0.0531496c-0.00398425,3.93701e-006 -0.00757874,-0.0023937 -0.0091063,-0.0060748 -0.00152362,-0.00367717 -0.000685039,-0.00791339 0.00212992,-0.0107323 0.00281496,-0.0028189 0.00705118,-0.00366535 0.0107323,-0.00214173 0.0036811,0.00152362 0.00608268,0.00512205 0.00608661,0.0091063l0.0984252 0c-3.93701e-006,-0.00398425 0.0023937,-0.0075748 0.00607087,-0.00910236 0.0036811,-0.00152756 0.00791732,-0.000685039 0.0107362,0.00212992 0.0028189,0.00281496 0.00366142,0.00705118 0.00214173,0.0107323 -0.00152362,0.0036811 -0.00512598,0.00608268 -0.0091063,0.00608268l0 0.0531496 0.11811 0 0 -0.197949c0.00129528,-0.1375 -0.0526732,-0.269669 -0.149909,-0.366902l-0.139969 -0.139972 -0.0835197 0.0835197 0.0375827 0.0375827c0.00281496,-0.0028189 0.00705118,-0.00366535 0.0107323,-0.00214173 0.0036811,0.00151969 0.00608268,0.00511024 0.00608661,0.00909449 3.93701e-006,0.00398425 -0.0023937,0.0075748 -0.0060748,0.00910236 -0.00367717,0.00152756 -0.0079252,0.000677165 -0.0107441,-0.0021378l-0.0695945 0.0695984c0.0028189,0.00281496 0.00366142,0.00705118 0.00214173,0.0107323 -0.00152362,0.0036811 -0.00511417,0.00608268 -0.00909449,0.00608268 -0.00398425,3.93701e-006 -0.00757874,-0.0023937 -0.0091063,-0.00607087 -0.00152362,-0.0036811 -0.000677165,-0.0079252 0.0021378,-0.0107441l-0.0375787 -0.0375827 -0.0487165 0.0487165c0.0028189,0.00281496 0.00366142,0.00705118 0.00214173,0.0107323 -0.00152362,0.0036811 -0.00511417,0.00608268 -0.00909449,0.00608661 -0.00398425,0 -0.00757874,-0.00239764 -0.00910236,-0.0060748 -0.00152756,-0.0036811 -0.000681102,-0.0079252 0.00213386,-0.0107441l-0.0751654 -0.0751654c-0.00281496,0.0028189 -0.00704724,0.00366535 -0.0107283,0.00214173 -0.0036811,-0.00151969 -0.00608268,-0.00511024 -0.00608661,-0.00909449 -3.93701e-006,-0.00398425 0.0023937,-0.0075748 0.0060748,-0.00910236 0.00367717,-0.00152756 0.0079252,-0.000677165 0.0107402,0.0021378l0.0487205 -0.0487205 -0.0375827 -0.0375827c-0.00281496,0.0028189 -0.00705118,0.00366535 -0.0107323,0.00214173 -0.0036811,-0.00151969 -0.00608268,-0.00511024 -0.00608661,-0.00909449 0,-0.00398425 0.00239764,-0.0075748 0.0060748,-0.00910236 0.0036811,-0.00152756 0.0079252,-0.000677165 0.0107441,0.0021378l0.0695984 -0.0695984c-0.0028189,-0.00281496 -0.00366535,-0.00705118 -0.00214173,-0.0107323 0.00151969,-0.0036811 0.00511024,-0.00608268 0.00909449,-0.00608268 0.00398425,-3.93701e-006 0.0075748,0.0023937 0.00910236,0.00607087 0.00152756,0.0036811 0.000677165,0.0079252 -0.0021378,0.0107441l0.0375827 0.0375827 0.0835118 -0.0835157 -0.208787 -0.208791z"/>
  </g>
  <g id="_83190672">
   <path id="_171553208" class="fil0 str2" d="M0.525591 8.36246c0,0.0562638 0.0300157,0.108252 0.0787402,0.136382 0.0487244,0.0281299 0.108752,0.0281299 0.157476,0 0.0487244,-0.0281299 0.0787402,-0.0801181 0.0787402,-0.136382l0 -0.787402c0,-0.0562638 -0.0300157,-0.108252 -0.0787402,-0.136382 -0.0487244,-0.0281299 -0.108752,-0.0281299 -0.157476,0 -0.0487244,0.0281299 -0.0787402,0.0801181 -0.0787402,0.136382l0 0.787402z"/>
   <path id="_83190600" class="fil0 str0" d="M0.528386 5.98791l0.0695984 -0.0695945 0 -0.0278386 -0.250547 -0.250551 -0.0278386 0 -0.0695984 0.0695945 0 4.51848 0.0695984 0.0695945 0.0278386 0 0.250543 -0.250555 0 -0.0278386 -0.0695945 -0.0695945 0.208787 -0.208787 -0.0835118 -0.0835157 -0.0375827 0.0375827c0.0028189,0.00281496 0.00366535,0.00705118 0.00214173,0.0107323 -0.00152362,0.0036811 -0.00511024,0.00608268 -0.00909449,0.00608268 -0.00398425,3.93701e-006 -0.0075748,-0.0023937 -0.00910236,-0.00607087 -0.00152756,-0.0036811 -0.000677165,-0.0079252 0.0021378,-0.0107441l-0.0695984 -0.0695984c-0.00281496,0.0028189 -0.00705118,0.00366535 -0.0107323,0.00214173 -0.0036811,-0.00151969 -0.00608268,-0.00511024 -0.00608661,-0.00909449 0,-0.00398425 0.00239764,-0.0075748 0.0060748,-0.00910236 0.0036811,-0.00152756 0.0079252,-0.000677165 0.0107441,0.0021378l0.0375827 -0.0375827 -0.0487205 -0.0487205c-0.00281496,0.0028189 -0.00704724,0.00366535 -0.0107283,0.00214173 -0.0036811,-0.00151969 -0.00608268,-0.00511024 -0.00608661,-0.00909449 -3.93701e-006,-0.00398425 0.0023937,-0.0075748 0.0060748,-0.00910236 0.00367717,-0.00152756 0.0079252,-0.000677165 0.0107402,0.0021378l0.0751654 -0.0751654c-0.0028189,-0.00281496 -0.00366142,-0.00705118 -0.00214173,-0.0107323 0.00152362,-0.0036811 0.00511417,-0.00608268 0.00909843,-0.00608661 0.00398031,0 0.0075748,0.00239764 0.00910236,0.0060748 0.00152362,0.0036811 0.000677165,0.0079252 -0.0021378,0.0107441l0.0487165 0.0487165 0.0375787 -0.0375827c-0.0028189,-0.00281496 -0.00366142,-0.00704724 -0.00214173,-0.0107283 0.00152362,-0.00368504 0.00511417,-0.00608661 0.00909449,-0.00608661 0.00398425,-3.93701e-006 0.00757874,0.0023937 0.0091063,0.0060748 0.00152362,0.00367717 0.000677165,0.00792126 -0.0021378,0.0107402l0.0695945 0.0695984c0.00281496,-0.0028189 0.00705118,-0.00366535 0.0107323,-0.00214173 0.0036811,0.00152362 0.00608268,0.00511024 0.00608661,0.00909449 3.93701e-006,0.00398425 -0.0023937,0.00757874 -0.0060748,0.00910236 -0.00367717,0.00152756 -0.0079252,0.000681102 -0.0107441,-0.00213386l-0.0375827 0.0375827 0.0835197 0.0835157 0.139969 -0.139972c0.0972244,-0.097248 0.151248,-0.229402 0.149909,-0.366906l0 -0.197949 -0.11811 0 0 0.0531496c0.00398031,-3.93701e-006 0.0075748,0.0023937 0.00910236,0.0060748 0.00152362,0.00367717 0.000685039,0.00791339 -0.00212992,0.0107323 -0.00281496,0.0028189 -0.00705118,0.00366535 -0.0107323,0.00214173 -0.0036811,-0.00151969 -0.00608268,-0.00512205 -0.00608268,-0.0091063l-0.0984252 0c0,0.00398425 -0.00239764,0.0075748 -0.0060748,0.00910236 -0.0036811,0.00152756 -0.00791732,0.000685039 -0.0107362,-0.00212992 -0.0028189,-0.00281496 -0.00366142,-0.00704724 -0.00214173,-0.0107283 0.00152362,-0.0036811 0.00512598,-0.00608661 0.00911024,-0.00608661l0 -0.0531496 -0.0688976 0c0,0.00398425 -0.00239764,0.0075748 -0.0060748,0.00910236 -0.0036811,0.00152756 -0.00791732,0.000685039 -0.0107362,-0.00212992 -0.0028189,-0.00281496 -0.00366142,-0.00704724 -0.00214173,-0.0107283 0.00152362,-0.0036811 0.00512598,-0.00608661 0.00911024,-0.00608661l0 -0.106299c-0.00398425,0 -0.00757874,-0.0023937 -0.0091063,-0.0060748 -0.00152362,-0.0036811 -0.000685039,-0.00791732 0.00212992,-0.0107362 0.00281496,-0.00281496 0.00705118,-0.00366142 0.0107323,-0.00214173 0.0036811,0.00152362 0.00608268,0.00512598 0.00608661,0.00911024l0.0688976 0 0 -0.0531496c-0.00398425,0 -0.00757874,-0.0023937 -0.0091063,-0.0060748 -0.00152362,-0.0036811 -0.000685039,-0.00791732 0.00212992,-0.0107362 0.00281496,-0.00281496 0.00705118,-0.00366142 0.0107323,-0.00214173 0.0036811,0.00152362 0.00608268,0.00512598 0.00608661,0.00911024l0.0984252 0c-3.93701e-006,-0.00398425 0.0023937,-0.00757874 0.00607087,-0.00910236 0.0036811,-0.00152756 0.00791732,-0.000688976 0.0107362,0.00212598 0.0028189,0.00281496 0.00366142,0.00705118 0.00214173,0.0107323 -0.00152362,0.0036811 -0.00512598,0.00608268 -0.0091063,0.00608661l0 0.0531496 0.11811 0 0 -0.133858 0.0984252 0 0.019685 -0.019685 0 -0.354331 -0.019685 -0.019685 -0.0984252 0 0 -0.64922 0.0984252 0 0.019685 -0.019685 0 -0.354331 -0.019685 -0.019685 -0.0984252 0 0 -0.133858 -0.11811 0 0 0.0531496c0.00398031,0 0.0075748,0.00239764 0.00910236,0.0060748 0.00152362,0.0036811 0.000685039,0.00791732 -0.00212992,0.0107362 -0.00281496,0.0028189 -0.00705118,0.00366142 -0.0107323,0.00214173 -0.0036811,-0.00152362 -0.00608268,-0.00512598 -0.00608268,-0.00911024l-0.0984252 0c0,0.00398425 -0.00239764,0.00757874 -0.0060748,0.00910236 -0.0036811,0.00152756 -0.00791732,0.000688976 -0.0107362,-0.00212598 -0.0028189,-0.00281496 -0.00366142,-0.00705118 -0.00214173,-0.0107323 0.00152362,-0.0036811 0.00512598,-0.00608268 0.00911024,-0.00608661l0 -0.0531496 -0.0688976 0c0,0.00398425 -0.00239764,0.00757874 -0.0060748,0.00910236 -0.0036811,0.00152756 -0.00791732,0.000688976 -0.0107362,-0.00212598 -0.0028189,-0.00281496 -0.00366142,-0.00705118 -0.00214173,-0.0107323 0.00152362,-0.0036811 0.00512598,-0.00608268 0.00911024,-0.00608661l0 -0.106299c-0.00398425,3.93701e-006 -0.00757874,-0.0023937 -0.0091063,-0.0060748 -0.00152362,-0.00367717 -0.000685039,-0.00791339 0.00212992,-0.0107323 0.00281496,-0.0028189 0.00705118,-0.00366535 0.0107323,-0.00214173 0.0036811,0.00152362 0.00608268,0.00512205 0.00608661,0.0091063l0.0688976 0 0 -0.0531496c-0.00398425,3.93701e-006 -0.00757874,-0.0023937 -0.0091063,-0.0060748 -0.00152362,-0.00367717 -0.000685039,-0.00791339 0.00212992,-0.0107323 0.00281496,-0.0028189 0.00705118,-0.00366535 0.0107323,-0.00214173 0.0036811,0.00152362 0.00608268,0.00512205 0.00608661,0.0091063l0.0984252 0c-3.93701e-006,-0.00398425 0.0023937,-0.0075748 0.00607087,-0.00910236 0.0036811,-0.00152756 0.00791732,-0.000685039 0.0107362,0.00212992 0.0028189,0.00281496 0.00366142,0.00705118 0.00214173,0.0107323 -0.00152362,0.0036811 -0.00512598,0.00608268 -0.0091063,0.00608268l0 0.0531496 0.11811 0 0 -0.197949c0.00129528,-0.1375 -0.0526732,-0.269669 -0.149909,-0.366902l-0.139969 -0.139972 -0.0835197 0.0835197 0.0375827 0.0375827c0.00281496,-0.0028189 0.00705118,-0.00366535 0.0107323,-0.00214173 0.0036811,0.00151969 0.00608268,0.00511024 0.00608661,0.00909449 3.93701e-006,0.00398425 -0.0023937,0.0075748 -0.0060748,0.00910236 -0.00367717,0.00152756 -0.0079252,0.000677165 -0.0107441,-0.0021378l-0.0695945 0.0695984c0.0028189,0.00281496 0.00366142,0.00705118 0.00214173,0.0107323 -0.00152362,0.0036811 -0.00511417,0.00608268 -0.00909449,0.00608268 -0.00398425,3.93701e-006 -0.00757874,-0.0023937 -0.0091063,-0.00607087 -0.00152362,-0.0036811 -0.000677165,-0.0079252 0.0021378,-0.0107441l-0.0375787 -0.0375827 -0.0487165 0.0487165c0.0028189,0.00281496 0.00366142,0.00705118 0.00214173,0.0107323 -0.00152362,0.0036811 -0.00511417,0.00608268 -0.00909449,0.00608661 -0.00398425,0 -0.00757874,-0.00239764 -0.00910236,-0.0060748 -0.00152756,-0.0036811 -0.000681102,-0.0079252 0.00213386,-0.0107441l-0.0751654 -0.0751654c-0.00281496,0.0028189 -0.00704724,0.00366535 -0.0107283,0.00214173 -0.0036811,-0.00151969 -0.00608268,-0.00511024 -0.00608661,-0.00909449 -3.93701e-006,-0.00398425 0.0023937,-0.0075748 0.0060748,-0.00910236 0.00367717,-0.00152756 0.0079252,-0.000677165 0.0107402,0.0021378l0.0487205 -0.0487205 -0.0375827 -0.0375827c-0.00281496,0.0028189 -0.00705118,0.00366535 -0.0107323,0.00214173 -0.0036811,-0.00151969 -0.00608268,-0.00511024 -0.00608661,-0.00909449 0,-0.00398425 0.00239764,-0.0075748 0.0060748,-0.00910236 0.0036811,-0.00152756 0.0079252,-0.000677165 0.0107441,0.0021378l0.0695984 -0.0695984c-0.0028189,-0.00281496 -0.00366535,-0.00705118 -0.00214173,-0.0107323 0.00151969,-0.0036811 0.00511024,-0.00608268 0.00909449,-0.00608268 0.00398425,-3.93701e-006 0.0075748,0.0023937 0.00910236,0.00607087 0.00152756,0.0036811 0.000677165,0.0079252 -0.0021378,0.0107441l0.0375827 0.0375827 0.0835118 -0.0835157 -0.208787 -0.208791z"/>
  </g>
 </g>
</svg>
