<?xml version="1.0" encoding="UTF-8"?>
<!DOCTYPE svg PUBLIC "-//W3C//DTD SVG 1.1//EN" "http://www.w3.org/Graphics/SVG/1.1/DTD/svg11.dtd">
<!-- Creator: CorelDRAW -->
<svg xmlns="http://www.w3.org/2000/svg" xml:space="preserve" width="2.36601in" height="3.63889in" style="shape-rendering:geometricPrecision; text-rendering:geometricPrecision; image-rendering:optimizeQuality; fill-rule:evenodd; clip-rule:evenodd"
viewBox="0 0 3.08342 4.74225"
 xmlns:xlink="http://www.w3.org/1999/xlink">
 <defs>
  <style type="text/css">
   <![CDATA[
    .str2 {stroke:black;stroke-width:0.00390964}
    .str1 {stroke:black;stroke-width:0.00390964;stroke-linejoin:bevel}
    .str0 {stroke:aqua;stroke-width:0.00390964;stroke-linejoin:bevel}
    .fil0 {fill:none}
   ]]>
  </style>
 </defs>
 <g id="VIEW_HATCHES">
  <metadata id="CorelCorpID_0Corel-Layer"/>
  <g id="_171228064">
   <path id="_171214768" class="fil0 str0" d="M3.08141 3.20124c-5.64384e-005,0.549951 -0.293521,1.05806 -0.769856,1.33294 -0.476304,0.274927 -1.06307,0.274809 -1.53927,-0.000215492 -0.476217,-0.275045 -0.769558,-0.783237 -0.769461,-1.3332l0 0 0 -0.11928 0 0 -0.00087223 -2.82256 0 0c0.000328369,-0.141055 0.114242,-0.255528 0.255286,-0.256615l0 0 2.56553 -0.000354023 0 0c0.141979,-0.000312977 0.257354,0.114473 0.257816,0.256482l0 0 0.000892753 2.82262 0 0 -6.15692e-005 0.120188 0 0z"/>
   <path id="_171214840" class="fil0 str1" d="M0.259191 0.14419c0.0636985,1.02615e-005 0.115334,0.0516566 0.115324,0.115355 -1.02615e-005,0.0636985 -0.0516617,0.115334 -0.11536,0.115324 -0.0636985,-1.02615e-005 -0.115329,-0.0516617 -0.115319,-0.11536 1.02615e-005,-0.0636985 0.0516514,-0.115329 0.115355,-0.115319z"/>
   <path id="_171214912" class="fil0 str1" d="M2.82334 0.143856c0.0636985,1.02615e-005 0.115334,0.0516566 0.115324,0.115355 -1.02615e-005,0.0637036 -0.0516566,0.115334 -0.11536,0.115324 -0.0636985,-1.02615e-005 -0.115329,-0.0516566 -0.115319,-0.115355 1.02615e-005,-0.0637036 0.0516566,-0.115334 0.115355,-0.115324z"/>
   <path id="_171215152" class="fil0 str1" d="M0.258791 2.70884c0.0636985,1.02615e-005 0.115334,0.0516514 0.115324,0.115355 -1.02615e-005,0.0636985 -0.0516617,0.115334 -0.11536,0.115324 -0.0636985,-1.02615e-005 -0.115329,-0.0516617 -0.115319,-0.11536 1.02615e-005,-0.0637036 0.0516514,-0.115329 0.115355,-0.115319z"/>
   <path id="_171215224" class="fil0 str1" d="M2.82417 2.70924c0.0636985,1.02615e-005 0.115334,0.0516514 0.115324,0.115355 -1.02615e-005,0.0636985 -0.0516617,0.115334 -0.11536,0.115324 -0.0636985,-1.02615e-005 -0.115329,-0.0516617 -0.115319,-0.11536 1.02615e-005,-0.0637036 0.0516514,-0.115329 0.115355,-0.115319z"/>
   <path id="_171216064" class="fil0 str2" d="M0.502466 3.20113c-0.0449763,0 -0.0814509,-0.0364746 -0.0814509,-0.0814509 0,-0.0449763 0.0364746,-0.0814509 0.0814509,-0.0814509m0 0.162902l0.256538 0m-0.256538 -0.162902l0.256538 0m0 0c0.0449763,0 0.0814509,0.0364746 0.0814509,0.0814509 0,0.0449763 -0.0364746,0.0814509 -0.0814509,0.0814509"/>
   <path id="_171546464" class="fil0 str2" d="M2.32697 3.20113c-0.0449763,0 -0.0814509,-0.0364746 -0.0814509,-0.0814509 0,-0.0449763 0.0364746,-0.0814509 0.0814509,-0.0814509m0 0.162902l0.256538 0m-0.256538 -0.162902l0.256538 0m0 0c0.0449763,0 0.0814509,0.0364746 0.0814509,0.0814509 0,0.0449763 -0.0364746,0.0814509 -0.0814509,0.0814509"/>
  </g>
 </g>
</svg>
